<svg xmlns="http://www.w3.org/2000/svg" width="587.978" height="655.106" viewBox="0 0 587.978 655.106"><defs><style>.a{fill:#f5f5f5;}.b{fill:#ebebeb;}.c{fill:#e0e0e0;}.d{fill:#fafafa;}.e{fill:#fff;}.f{fill:#ff725e;}.g{fill:#263238;}.h{fill:#455a64;}.i{opacity:0.3;}.j{fill:#3c4b64;}.k{fill:#ffbe9d;}.l{fill:#eb996e;}.m{opacity:0.6;}</style></defs><g transform="translate(-122.574 -219.232)"><g transform="translate(122.574 360.256)"><g transform="translate(386.062 0)"><path class="a" d="M428.187,335.306l-105.8-40.014a14.155,14.155,0,0,1-8.232-18.245L369.537,130.6a14.153,14.153,0,0,1,18.244-8.233l67.1,25.377,31.694,73.179L446.432,327.073A14.155,14.155,0,0,1,428.187,335.306Z" transform="translate(-313.234 -121.45)"/><g transform="translate(125.206 26.296)"><path class="b" d="M415.737,139.524,400.149,180.74A13.164,13.164,0,0,0,407.8,197.71L447.431,212.7Z" transform="translate(-399.294 -139.524)"/></g><g transform="translate(124.327 71.334)"><path class="c" d="M399.6,170.481s-4.3,9.8,5.836,17.388a13.842,13.842,0,0,0,1.193.787c4.824,2.881,36.6,21.824,36.892,21.042l4.189-11.076-39.63-14.988S398.309,179.555,399.6,170.481Z" transform="translate(-398.69 -170.481)"/></g><g transform="translate(68.874 43.912)"><path class="c" d="M409.526,170.2c-.2.53-11.322-3.186-24.836-8.3s-24.314-9.686-24.113-10.216,11.319,3.185,24.837,8.3S409.726,169.666,409.526,170.2Z" transform="translate(-360.574 -151.632)"/></g><g transform="translate(60.061 67.235)"><path class="c" d="M435.08,198.162c-.2.53-18.4-5.862-40.642-14.275s-40.121-15.663-39.92-16.193,18.4,5.86,40.646,14.275S435.281,197.633,435.08,198.162Z" transform="translate(-354.517 -167.664)"/></g><g transform="translate(52.703 86.697)"><path class="c" d="M437.277,214.28c-.2.53-20.023-6.476-44.268-15.646S349.26,181.6,349.46,181.069s20.017,6.476,44.273,15.648S437.478,213.751,437.277,214.28Z" transform="translate(-349.459 -181.041)"/></g><g transform="translate(45.759 105.055)"><path class="c" d="M432.506,226.9c-.2.531-20.023-6.476-44.27-15.646s-43.749-17.036-43.548-17.566,20.019,6.476,44.274,15.648S432.705,226.371,432.506,226.9Z" transform="translate(-344.686 -193.66)"/></g><g transform="translate(38.816 123.414)"><path class="c" d="M427.732,239.52c-.2.53-20.023-6.477-44.268-15.647s-43.749-17.035-43.548-17.566,20.017,6.476,44.273,15.648S427.933,238.99,427.732,239.52Z" transform="translate(-339.914 -206.279)"/></g><g transform="translate(31.872 141.775)"><path class="c" d="M422.961,252.138c-.2.53-20.023-6.477-44.27-15.646s-43.749-17.036-43.548-17.566,20.019,6.474,44.274,15.647S423.16,251.609,422.961,252.138Z" transform="translate(-335.141 -218.899)"/></g></g><g transform="translate(0 58.761)"><g transform="translate(0 0)"><rect class="b" width="166.299" height="230.261" rx="6.363" transform="matrix(0.944, -0.33, 0.33, 0.944, 0, 54.961)"/><g transform="translate(12.399 8.439)"><g transform="translate(0 5.86)"><g transform="translate(2.685 1.184)"><g transform="translate(0 0)"><rect class="c" width="142.962" height="209.881" transform="matrix(0.944, -0.33, 0.33, 0.944, 0, 47.249)"/></g></g><g transform="translate(0.271 0.247)"><g transform="translate(0 0)"><rect class="d" width="142.962" height="205.873" transform="matrix(0.944, -0.33, 0.33, 0.944, 0, 47.249)"/></g></g><path class="c" d="M259.635,366.218l-68.223-194.24.246.118L56.752,219.357l-.016.006.131-.271c25.432,72.986,49.1,140.387,68,194.318l-.218-.1,134.985-47.088c-1.321.466-52.87,18.586-134.871,47.41l-.161.058-.057-.162C105.65,359.6,82.031,292.19,56.467,219.232l-.071-.2.2-.07.016-.006,134.919-47.226.182-.064.064.183C231.817,286.537,259.07,364.594,259.635,366.218Z" transform="translate(-56.396 -171.667)"/><g transform="translate(155.378 159.576)"><path class="c" d="M163.2,333.087s30.049-25.341,35.256-51.735a38.168,38.168,0,0,1-25.688,15.467S172.161,324.529,163.2,333.087Z" transform="translate(-163.195 -281.352)"/></g><g transform="translate(34.594 60.719)"><g transform="translate(0 28.429)"><g transform="translate(0 0)"><rect class="b" width="17.476" height="17.476" rx="3.419" transform="translate(0 5.776) rotate(-19.298)"/></g></g><g transform="translate(7.138 33.76)"><path class="e" d="M88.876,245.151l-.013,0a.412.412,0,0,1-.326-.036l-3.255-1.887a.407.407,0,0,1,.409-.7l2.869,1.663L92,236.841a.407.407,0,1,1,.738.345l-3.624,7.753A.406.406,0,0,1,88.876,245.151Z" transform="translate(-85.08 -236.607)"/></g><g transform="translate(25.697)"><path class="c" d="M176.25,213.4c.038.111-17.484,6.348-39.134,13.927s-39.239,13.641-39.278,13.53,17.482-6.346,39.139-13.93S176.21,213.293,176.25,213.4Z" transform="translate(-97.837 -213.402)"/></g><g transform="translate(29.922 27.95)"><path class="c" d="M133.778,232.617a8.605,8.605,0,0,1-1.272.532l-3.518,1.3c-2.977,1.082-7.1,2.55-11.658,4.148s-8.7,3.022-11.7,4.031l-3.561,1.177a8.69,8.69,0,0,1-1.325.377,8.435,8.435,0,0,1,1.27-.532l3.518-1.3c2.977-1.084,7.1-2.552,11.661-4.149s8.7-3.02,11.7-4.031l3.563-1.176A8.48,8.48,0,0,1,133.778,232.617Z" transform="translate(-100.741 -232.614)"/></g><g transform="translate(27.57 5.347)"><path class="c" d="M177.535,217.078c.039.111-17.485,6.346-39.133,13.927s-39.239,13.641-39.278,13.529,17.48-6.345,39.137-13.929S177.5,216.968,177.535,217.078Z" transform="translate(-99.124 -217.077)"/></g></g><g transform="translate(44.731 89.669)"><g transform="translate(0 28.429)"><g transform="translate(0 0)"><rect class="b" width="17.476" height="17.476" rx="3.419" transform="translate(0 5.776) rotate(-19.299)"/></g></g><g transform="translate(7.137 33.761)"><path class="e" d="M95.844,265.05l-.013,0a.406.406,0,0,1-.326-.036l-3.255-1.887a.407.407,0,0,1,.41-.7l2.868,1.663,3.438-7.35a.407.407,0,0,1,.738.346l-3.626,7.753A.408.408,0,0,1,95.844,265.05Z" transform="translate(-92.048 -256.506)"/></g><g transform="translate(25.698)"><path class="c" d="M183.217,233.3c.038.111-17.484,6.348-39.134,13.929s-39.239,13.639-39.277,13.529,17.48-6.346,39.137-13.929S183.178,233.192,183.217,233.3Z" transform="translate(-104.806 -233.301)"/></g><g transform="translate(29.922 27.95)"><path class="c" d="M140.746,252.516a8.434,8.434,0,0,1-1.27.532l-3.518,1.3c-2.977,1.082-7.1,2.552-11.659,4.148s-8.7,3.022-11.7,4.033l-3.563,1.176a8.472,8.472,0,0,1-1.325.377,8.7,8.7,0,0,1,1.272-.532l3.518-1.3c2.975-1.082,7.1-2.552,11.661-4.149s8.7-3.02,11.7-4.031l3.561-1.176A8.531,8.531,0,0,1,140.746,252.516Z" transform="translate(-107.709 -252.513)"/></g><g transform="translate(27.571 5.347)"><path class="c" d="M184.5,236.977c.038.111-17.484,6.348-39.134,13.929s-39.239,13.639-39.277,13.529,17.48-6.346,39.137-13.93S184.465,236.867,184.5,236.977Z" transform="translate(-106.093 -236.976)"/></g></g><g transform="translate(54.869 118.62)"><g transform="translate(0 28.428)"><g transform="translate(0 0)"><rect class="b" width="17.476" height="17.476" rx="3.419" transform="translate(0 5.776) rotate(-19.299)"/></g></g><g transform="translate(7.138 33.759)"><path class="e" d="M102.812,284.951l-.013,0a.413.413,0,0,1-.326-.036l-3.253-1.887a.407.407,0,1,1,.409-.7l2.869,1.663,3.436-7.35a.407.407,0,0,1,.738.345l-3.626,7.753A.41.41,0,0,1,102.812,284.951Z" transform="translate(-99.016 -276.405)"/></g><g transform="translate(25.698)"><path class="c" d="M190.185,253.2c.039.111-17.485,6.346-39.134,13.927s-39.238,13.639-39.277,13.53,17.48-6.346,39.137-13.93S190.146,253.092,190.185,253.2Z" transform="translate(-111.774 -253.201)"/></g><g transform="translate(29.923 27.95)"><path class="c" d="M147.714,272.416a8.543,8.543,0,0,1-1.27.532l-3.518,1.3c-2.977,1.084-7.1,2.552-11.659,4.149s-8.7,3.02-11.7,4.031c-1.452.48-2.652.876-3.563,1.176a8.542,8.542,0,0,1-1.324.377,8.533,8.533,0,0,1,1.27-.532l3.518-1.3c2.977-1.082,7.1-2.55,11.661-4.148s8.7-3.022,11.7-4.031l3.561-1.177A8.651,8.651,0,0,1,147.714,272.416Z" transform="translate(-114.678 -272.413)"/></g><g transform="translate(27.57 5.345)"><path class="c" d="M191.472,256.876c.038.111-17.484,6.348-39.134,13.929s-39.239,13.639-39.277,13.529,17.48-6.346,39.137-13.929S191.433,256.766,191.472,256.876Z" transform="translate(-113.061 -256.875)"/></g></g><g transform="translate(65.007 147.571)"><g transform="translate(0 28.429)"><g transform="translate(0 0)"><rect class="b" width="17.476" height="17.476" rx="3.419" transform="translate(0 5.776) rotate(-19.3)"/></g></g><g transform="translate(7.137 33.76)"><path class="e" d="M109.781,304.85l-.013,0a.415.415,0,0,1-.327-.036l-3.253-1.887a.407.407,0,1,1,.409-.7l2.869,1.663,3.436-7.35a.407.407,0,1,1,.738.345l-3.624,7.753A.41.41,0,0,1,109.781,304.85Z" transform="translate(-105.984 -296.305)"/></g><g transform="translate(25.698)"><path class="c" d="M197.153,273.1c.039.111-17.485,6.348-39.133,13.929s-39.239,13.639-39.278,13.529,17.48-6.346,39.137-13.93S197.115,272.991,197.153,273.1Z" transform="translate(-118.742 -273.1)"/></g><g transform="translate(29.922 27.95)"><path class="c" d="M154.683,292.315a8.683,8.683,0,0,1-1.272.532l-3.518,1.3c-2.977,1.082-7.1,2.55-11.659,4.148s-8.7,3.022-11.7,4.033c-1.452.479-2.652.874-3.561,1.176a8.8,8.8,0,0,1-1.325.377,8.336,8.336,0,0,1,1.27-.532l3.518-1.3c2.977-1.082,7.1-2.552,11.661-4.149s8.7-3.02,11.7-4.031l3.563-1.176A8.487,8.487,0,0,1,154.683,292.315Z" transform="translate(-121.646 -292.312)"/></g><g transform="translate(27.57 5.347)"><path class="c" d="M198.44,276.776c.039.111-17.485,6.346-39.134,13.927s-39.238,13.641-39.277,13.53,17.48-6.346,39.137-13.93S198.4,276.666,198.44,276.776Z" transform="translate(-120.029 -276.775)"/></g></g></g><g transform="translate(15.552 0.827)"><path class="c" d="M67.086,201.807l3.561,10.171a11.325,11.325,0,0,0,14.429,6.946l74.63-26.134a11.323,11.323,0,0,0,6.944-14.429L163.1,168.208Z" transform="translate(-67.086 -168.208)"/></g><g transform="translate(50.425)"><path class="c" d="M105.182,188.277a10.617,10.617,0,1,1,6.512-13.529A10.629,10.629,0,0,1,105.182,188.277Zm-5.671-16.2a6.544,6.544,0,1,0,8.339,4.014A6.551,6.551,0,0,0,99.51,172.081Z" transform="translate(-91.055 -167.639)"/></g></g></g><g transform="translate(48.459 55.458)"><path class="c" d="M169.326,199.962c.067.193-19.612,7.26-43.948,15.782s-44.127,15.277-44.2,15.084,19.606-7.258,43.951-15.784S169.258,199.769,169.326,199.962Z" transform="translate(-81.182 -199.958)"/></g><g transform="translate(72.461 59.073)"><path class="c" d="M136.618,202.452c.068.193-8.594,3.4-19.345,7.167s-19.526,6.662-19.593,6.468,8.592-3.4,19.347-7.168S136.551,202.258,136.618,202.452Z" transform="translate(-97.68 -202.443)"/></g></g></g><g transform="translate(172.362 702.398)"><g transform="translate(0)"><g transform="translate(391.802)"><g transform="translate(51.277 67.931)"><path class="f" d="M392.912,405.885c5.224-2.7,11.377-3.046,17.178-2.086,3.116.515,6.366,1.446,8.486,3.787s2.523,6.461.087,8.473c-1.449,1.2-3.47,1.379-5.35,1.357-4.542-.054-9.58-.853-13.209,1.88-2.069,1.558-3.447,4.151-5.923,4.917-2.421.749-5.153-.679-6.436-2.865a10,10,0,0,1-.727-7.379A11.267,11.267,0,0,1,392.912,405.885Z" transform="translate(-386.646 -403.313)"/></g><g transform="translate(42.555)"><path class="f" d="M383.667,404.014c3.195,4.564,9.406,3.052,12.285.268s4.1-6.823,5.2-10.673c2.531-8.8,5.083-18.023,3.2-26.98a15,15,0,0,0-3.445-7.335,7.834,7.834,0,0,0-7.421-2.47c-3.131.828-5.077,3.895-6.484,6.812a64.325,64.325,0,0,0-6.355,27.6c-.016,4.445.508,9.107,3.016,12.778" transform="translate(-380.651 -356.621)"/></g><g transform="translate(0 14.684)"><path class="f" d="M388.2,405.972c3.47-4.117,4.127-10.123,2.584-15.28s-5.031-9.547-9.049-13.129A48.717,48.717,0,0,0,365.525,368a17.245,17.245,0,0,0-7.287-1.238,7.651,7.651,0,0,0-6.118,3.7c-1.705,3.253-.07,7.2,1.7,10.417a123.42,123.42,0,0,0,10.644,16.21c3.19,4.113,6.845,8.171,11.707,10.03s9.913,1.64,12.491-1.733" transform="translate(-351.401 -366.714)"/></g><g transform="translate(45.297 74.268)"><path class="g" d="M382.593,449.631a9.794,9.794,0,0,0,.289-2.073l.551-5.658a81.524,81.524,0,0,1,1.273-8.3,64.058,64.058,0,0,1,3.016-9.8,36.157,36.157,0,0,1,5-8.864,18.712,18.712,0,0,1,6.324-5.258,17.732,17.732,0,0,1,5.326-1.658,9.98,9.98,0,0,0,2.064-.3,9.67,9.67,0,0,0-2.1-.032,16.114,16.114,0,0,0-5.553,1.445,18.64,18.64,0,0,0-6.672,5.3,35.238,35.238,0,0,0-5.185,9.042,59.871,59.871,0,0,0-3,9.957,70.307,70.307,0,0,0-1.1,8.4c-.179,2.4-.247,4.35-.279,5.694A9.745,9.745,0,0,0,382.593,449.631Z" transform="translate(-382.535 -407.669)"/></g><g transform="translate(45.296 18.337)"><path class="g" d="M382.985,462.765a4.214,4.214,0,0,0,.055-.963c0-.723,0-1.634-.007-2.751-.007-2.387-.006-5.844.122-10.11.211-8.534.946-17.719,2.366-30.667,1.344-12.176,3.148-26.346,5.051-35.558.407-2.1.819-3.982,1.206-5.632.37-1.656.684-3.083.988-4.237.262-1.087.474-1.971.643-2.674a4.154,4.154,0,0,0,.169-.949,3.98,3.98,0,0,0-.335.9c-.209.691-.474,1.564-.8,2.636-.355,1.143-.717,2.56-1.132,4.209-.432,1.644-.886,3.525-1.333,5.617a312.13,312.13,0,0,0-5.31,32.995c-1.423,12.974-2.063,24.789-2.12,33.345-.051,4.277.041,7.74.15,10.129.068,1.119.124,2.028.167,2.751A3.975,3.975,0,0,0,382.985,462.765Z" transform="translate(-382.535 -369.225)"/></g><g transform="translate(15.319 25.303)"><path class="g" d="M392.414,437.8a18.2,18.2,0,0,0-.02-2.875c-.106-1.846-.359-4.516-.88-7.786a102.713,102.713,0,0,0-2.533-11.345,92.834,92.834,0,0,0-4.744-13.425A71.537,71.537,0,0,0,370.3,380.673a35.555,35.555,0,0,0-3.278-3.046c-.5-.425-.947-.848-1.4-1.184q-.681-.471-1.272-.877a18.454,18.454,0,0,0-2.419-1.549c-.137.188,3.429,2.286,7.932,7.076a75.372,75.372,0,0,1,13.584,21.616,106.168,106.168,0,0,1,4.772,13.3c1.244,4.17,2.07,8,2.694,11.233.594,3.237.937,5.881,1.145,7.711A18.336,18.336,0,0,0,392.414,437.8Z" transform="translate(-361.93 -374.013)"/></g><g transform="translate(23.777 129.286)"><path class="g" d="M367.744,445.486l2.283,31.282h40.187l2.284-31.282Z" transform="translate(-367.744 -445.486)"/></g><g transform="translate(19.896 116.956)"><rect class="g" width="53.43" height="12.33"/></g><g transform="translate(19.896 159.371)"><path class="h" d="M365.076,466.165v3.418h52.547v-3.418Z" transform="translate(-365.076 -466.165)"/></g><g transform="translate(22.406 162.788)"><path class="h" d="M369.262,474.529l-2.461-6.015h48.123l-2.871,6.015Z" transform="translate(-366.802 -468.514)"/></g><g transform="translate(24.454 135.116)"><path class="c" d="M411.539,453.887a1.238,1.238,0,0,1-.186.288c-.16.211-.358.473-.6.8l-2.341,3-.1.134-.1-.14-5.751-7.955h.33c-1.711,2.424-3.617,5.121-5.662,8.019l-.177.25-.2-.236-6.716-7.99.388,0c-.118.145-.243.3-.37.464-2.083,2.61-4.1,5.137-6.006,7.527l-.2.252-.185-.262-5.667-8.016.33.016-6.978,7.949-.124.141-.095-.159c-.919-1.545-1.653-2.777-2.185-3.671l-.56-.978a1.592,1.592,0,0,1-.172-.348,1.476,1.476,0,0,1,.234.31l.621.94c.557.877,1.327,2.086,2.293,3.6l-.218-.017c1.788-2.1,4.117-4.827,6.865-8.047l.173-.2.156.218c1.739,2.425,3.66,5.108,5.716,7.98l-.384-.01c1.9-2.393,3.912-4.925,5.991-7.539.125-.16.252-.319.37-.466l.191-.239.2.234c2.35,2.809,4.613,5.514,6.7,8.006l-.375.014c2.066-2.882,3.991-5.568,5.719-7.977l.167-.234.163.234,5.63,8.041-.205-.007c1.027-1.229,1.842-2.207,2.435-2.918l.653-.755A1.32,1.32,0,0,1,411.539,453.887Z" transform="translate(-368.209 -449.493)"/></g><g transform="translate(24.112 128.829)"><path class="h" d="M412.952,445.422c0,.138-10.071.25-22.488.25s-22.491-.112-22.491-.25,10.068-.25,22.491-.25S412.952,445.284,412.952,445.422Z" transform="translate(-367.974 -445.172)"/></g><g transform="translate(22.238 162.876)"><path class="g" d="M415.568,468.824c0,.138-10.943.249-24.44.249s-24.442-.111-24.442-.249,10.941-.25,24.442-.25S415.568,468.686,415.568,468.824Z" transform="translate(-366.686 -468.574)"/></g></g><g transform="translate(0 0.001)"><g transform="translate(61.06)"><g transform="translate(1.721 60.342)"><path class="g" d="M128.958,401.081c-.111.137-1.027-.415-2.048-1.232s-1.762-1.593-1.651-1.73,1.027.415,2.048,1.232S129.067,400.942,128.958,401.081Z" transform="translate(-125.247 -398.098)"/></g><g transform="translate(3.319 2.028)"><path class="h" d="M156.328,377.655c.169-3.892.278-7.884-.95-11.581s-4.079-7.1-7.894-7.887c-4.353-.9-8.815,1.848-11.255,5.563s-3.278,8.23-4,12.618a445.512,445.512,0,0,0-5.46,91.586l17.815,2.5C152.41,438.483,154.907,410.54,156.328,377.655Z" transform="translate(-126.346 -358.015)"/></g><g transform="translate(8.881 2.063)"><path class="g" d="M143.271,358.04a1.035,1.035,0,0,1-.08.284c-.08.218-.176.483-.294.807l-1.187,3.078c-.249.671-.579,1.4-.845,2.226s-.556,1.733-.864,2.7-.646,2-1,3.1c-.29,1.117-.6,2.3-.919,3.532a154.963,154.963,0,0,0-3.441,17.633c-.965,6.7-1.6,14.121-2.094,21.917-.911,15.609-1.053,29.78-1.455,40.025-.191,5.124-.367,9.27-.562,12.131q-.142,2.084-.224,3.3c-.029.343-.054.624-.074.855a1.056,1.056,0,0,1-.047.29.959.959,0,0,1-.017-.294c0-.231.006-.514.01-.858q.039-1.211.1-3.3c.119-2.863.225-7.01.359-12.132.285-10.245.356-24.415,1.269-40.051.5-7.81,1.149-15.247,2.149-21.963a147.4,147.4,0,0,1,3.586-17.663q.508-1.855.967-3.532.554-1.639,1.049-3.094l.917-2.69c.284-.826.631-1.548.9-2.213q.823-1.923,1.3-3.039l.352-.783A1.019,1.019,0,0,1,143.271,358.04Z" transform="translate(-130.169 -358.04)"/></g><g transform="translate(19.461 2.074)"><path class="g" d="M141.615,358.047a12.717,12.717,0,0,1,2.176,3.685,27.277,27.277,0,0,1,1.624,11.525c-.473,9.845-1.354,23.41-2.526,38.388s-2.483,28.52-3.535,38.309c-.525,4.894-.981,8.851-1.317,11.584q-.255,1.984-.4,3.144l-.122.816a.9.9,0,0,1-.063.275.951.951,0,0,1,0-.282c.016-.224.035-.493.058-.822q.1-1.165.285-3.157c.269-2.8.647-6.748,1.114-11.6.937-9.8,2.171-23.34,3.349-38.315s2.124-28.539,2.71-38.353a27.9,27.9,0,0,0-1.4-11.418A24.055,24.055,0,0,0,141.615,358.047Z" transform="translate(-137.441 -358.047)"/></g><g transform="translate(29.447 45.799)"><path class="g" d="M150.845,390.485c-.06.166-1.571-.226-3.377-.873s-3.221-1.306-3.161-1.472,1.57.225,3.377.873S150.9,390.321,150.845,390.485Z" transform="translate(-144.305 -388.102)"/></g><g transform="translate(31.447 29.998)"><path class="g" d="M152.365,377.269c.071.161-1.366.96-3.212,1.787s-3.4,1.365-3.471,1.2,1.366-.96,3.212-1.786S152.294,377.109,152.365,377.269Z" transform="translate(-145.679 -377.241)"/></g><g transform="translate(31.752 14.659)"><path class="g" d="M151.157,367.245c-.012.175-1.2.236-2.655.135s-2.625-.323-2.613-.5,1.2-.236,2.657-.135S151.17,367.069,151.157,367.245Z" transform="translate(-145.889 -366.698)"/></g><g transform="translate(15.665 1.023)"><path class="g" d="M137.8,362.013c-.148.095-.928-.879-1.741-2.171s-1.353-2.417-1.2-2.511.928.879,1.741,2.172S137.95,361.92,137.8,362.013Z" transform="translate(-134.832 -357.325)"/></g><g transform="translate(7.512 14.295)"><path class="g" d="M134.276,366.824a10.159,10.159,0,0,1-5.048-.108,10.16,10.16,0,0,1,5.048.108Z" transform="translate(-129.228 -366.447)"/></g><g transform="translate(3.108 30.508)"><path class="g" d="M131.29,379.684c-.065.163-1.257-.164-2.662-.73s-2.491-1.158-2.424-1.321,1.257.164,2.662.73S131.356,379.521,131.29,379.684Z" transform="translate(-126.201 -377.591)"/></g><g transform="translate(3.067 47.589)"><path class="g" d="M130.838,389.424c.036.172-.979.53-2.267.8s-2.361.349-2.4.177.979-.531,2.267-.8S130.8,389.25,130.838,389.424Z" transform="translate(-126.172 -389.332)"/></g><g transform="translate(0.754 72.245)"><path class="g" d="M129.508,406.379c.032.173-1.046.511-2.406.755a5.189,5.189,0,0,1-2.518.127c-.032-.172,1.046-.511,2.406-.754A5.18,5.18,0,0,1,129.508,406.379Z" transform="translate(-124.583 -406.279)"/></g><g transform="translate(0 85.925)"><path class="g" d="M128.38,415.717c.083.156-.816.791-2.006,1.421s-2.222,1.014-2.3.858.816-.791,2.006-1.421S128.3,415.561,128.38,415.717Z" transform="translate(-124.064 -415.682)"/></g><g transform="translate(12.462 96.264)"><path class="g" d="M135.6,427.938c-.153.087-.935-.994-1.749-2.414s-1.349-2.644-1.2-2.731.935.994,1.75,2.415S135.755,427.851,135.6,427.938Z" transform="translate(-132.63 -422.789)"/></g><g transform="translate(14.289 75.72)"><path class="g" d="M138.239,408.68c.124.127-.749,1.181-1.948,2.355s-2.27,2.027-2.393,1.9.749-1.18,1.948-2.355S138.115,408.555,138.239,408.68Z" transform="translate(-133.886 -408.668)"/></g><g transform="translate(14.768 58.847)"><path class="g" d="M137.379,400.482c-.13.119-.938-.544-1.807-1.483s-1.469-1.8-1.34-1.915.937.544,1.807,1.482S137.509,400.362,137.379,400.482Z" transform="translate(-134.215 -397.07)"/></g><g transform="translate(16.401 45.031)"><path class="g" d="M139.074,387.584c.131.118-.6,1.142-1.624,2.289s-1.967,1.981-2.1,1.865.6-1.142,1.624-2.29S138.943,387.468,139.074,387.584Z" transform="translate(-135.338 -387.574)"/></g><g transform="translate(17.282 28.519)"><path class="g" d="M140.04,380.252c-.122.125-1.136-.672-2.265-1.781s-1.942-2.11-1.819-2.235,1.136.672,2.265,1.781S140.163,380.127,140.04,380.252Z" transform="translate(-135.943 -376.224)"/></g><g transform="translate(20.97 15.651)"><path class="g" d="M141.327,367.385c.151.09-.358,1.222-1.138,2.529s-1.533,2.293-1.685,2.2.359-1.222,1.138-2.529S141.175,367.295,141.327,367.385Z" transform="translate(-138.478 -367.379)"/></g><g transform="translate(25.804)"><path class="g" d="M144.4,356.627c.154.083-.3,1.216-1.007,2.53s-1.411,2.313-1.565,2.229.3-1.216,1.005-2.531S144.25,356.542,144.4,356.627Z" transform="translate(-141.801 -356.622)"/></g><g transform="translate(30.149 7.065)"><path class="g" d="M148.251,361.526c.076.159-.636.658-1.592,1.114s-1.791.7-1.867.541.637-.658,1.592-1.116S148.175,361.368,148.251,361.526Z" transform="translate(-144.787 -361.478)"/></g><g transform="translate(27.227 60.53)"><path class="g" d="M149.29,401.023c-.035.164-1.65-.057-3.484-.844s-3.116-1.792-3.022-1.932,1.491.592,3.272,1.346S149.332,400.846,149.29,401.023Z" transform="translate(-142.779 -398.227)"/></g><g transform="translate(26.695 75.139)"><path class="g" d="M147.329,408.362c.033.172-1.04.524-2.4.786s-2.483.335-2.517.162,1.04-.525,2.4-.787A5.2,5.2,0,0,1,147.329,408.362Z" transform="translate(-142.413 -408.268)"/></g><g transform="translate(24.557 90.076)"><path class="g" d="M145.381,424.105c-.1.132-1.464-.8-2.713-2.382s-1.853-3.115-1.7-3.185.989,1.273,2.2,2.789S145.5,423.966,145.381,424.105Z" transform="translate(-140.944 -418.535)"/></g><g transform="translate(0.346 101.845)"><path class="g" d="M124.314,429.762c-.113-.134.61-.94,1.616-1.8s1.916-1.451,2.031-1.317-.61.938-1.616,1.8S124.429,429.9,124.314,429.762Z" transform="translate(-124.302 -426.625)"/></g></g><g transform="translate(39.251 52.529)"><path class="h" d="M123.007,400.625c-1.158-3.621-3.336-7.842-7.136-7.9a6.319,6.319,0,0,0-5.347,3.578,13.2,13.2,0,0,0-1.445,6.554,170.8,170.8,0,0,0,8.172,47.455h13.91A165.251,165.251,0,0,0,123.007,400.625Z" transform="translate(-109.074 -392.728)"/></g><g transform="translate(4.123 25.266)"><path class="h" d="M108.832,386.356c-1.944-7.776-7.744-11.978-14.48-12.368-6.15,1.08-8.534,7.132-9.265,13.331s1.194,12.371,3.1,18.317q9.155,28.636,18.311,57.271l17.306-1.89C118.322,435.44,115.177,411.731,108.832,386.356Z" transform="translate(-84.929 -373.988)"/></g><g transform="translate(43.719 52.53)"><path class="g" d="M114.473,392.728a15.167,15.167,0,0,0-1.178,1.968,12.988,12.988,0,0,0-.65,6.151c.269,2.643.572,5.828,1.015,9.315s1.082,7.324,1.864,11.319c1.574,7.992,3.345,15.163,4.471,20.39.569,2.612,1,4.733,1.27,6.2.116.677.212,1.237.291,1.7a2.115,2.115,0,0,1,.058.6,2.2,2.2,0,0,1-.183-.575c-.111-.454-.246-1.005-.407-1.672l-1.468-6.154c-1.237-5.2-3.077-12.352-4.656-20.368-.784-4.007-1.4-7.852-1.821-11.367-.223-1.758-.37-3.433-.511-5s-.3-3.016-.372-4.36a12.638,12.638,0,0,1,.874-6.284A5.512,5.512,0,0,1,114.473,392.728Z" transform="translate(-112.145 -392.728)"/></g><g transform="translate(8.553 24.774)"><path class="g" d="M93.217,373.65a22.923,22.923,0,0,0-2.092,2.809,19.764,19.764,0,0,0-2.633,9.057c-.265,4.027.633,8.8,2.142,13.932,1.519,5.15,3.186,10.8,4.938,16.734,3.451,11.863,6.573,22.6,8.857,30.446,1.09,3.854,1.979,7,2.614,9.247l.679,2.523a4.93,4.93,0,0,1,.2.892,4.75,4.75,0,0,1-.319-.856c-.2-.629-.466-1.455-.794-2.489L104,446.754c-2.329-7.836-5.515-18.551-9.036-30.392-1.734-5.94-3.385-11.6-4.891-16.754-1.484-5.156-2.354-10.02-2.027-14.122a19.413,19.413,0,0,1,2.873-9.157A10.663,10.663,0,0,1,93.217,373.65Z" transform="translate(-87.974 -373.65)"/></g><g transform="translate(12.63 25.124)"><path class="g" d="M117.366,459.211a4.968,4.968,0,0,1-.391-.829c-.227-.554-.6-1.362-.985-2.434-.826-2.127-1.883-5.259-2.977-9.19s-2.181-8.67-3.225-13.956c-1-5.3-2.1-11.111-3.259-17.214-1.2-6.093-2.543-11.857-4.1-17a94.663,94.663,0,0,0-5.045-13.334,70.788,70.788,0,0,0-4.666-8.406c-.6-.97-1.136-1.67-1.458-2.176a4.981,4.981,0,0,1-.484-.778,4.874,4.874,0,0,1,.588.7c.356.483.931,1.161,1.561,2.114a63,63,0,0,1,4.865,8.349,90.519,90.519,0,0,1,5.2,13.359,171.026,171.026,0,0,1,4.161,17.048c1.139,6.108,2.223,11.924,3.211,17.226,1.011,5.285,2.044,10.02,3.084,13.952s2.022,7.075,2.774,9.222c.354,1.082.684,1.9.873,2.472A5.018,5.018,0,0,1,117.366,459.211Z" transform="translate(-90.776 -373.891)"/></g><g transform="translate(3.331 53.972)"><path class="g" d="M88.741,393.8c.041.17-.9.546-2.1.838s-2.211.39-2.254.218.9-.546,2.1-.838S88.7,393.632,88.741,393.8Z" transform="translate(-84.384 -393.719)"/></g><g transform="translate(0 41.912)"><path class="g" d="M87.948,385.762c-.009.179-1.317.252-2.918.317s-2.911.09-2.934-.087,1.274-.487,2.91-.55S87.958,385.59,87.948,385.762Z" transform="translate(-82.095 -385.43)"/></g><g transform="translate(4.004 28.225)"><path class="g" d="M88.647,379.255c-.113.134-1.055-.477-2.1-1.363s-1.8-1.715-1.689-1.851,1.055.477,2.1,1.365S88.76,379.121,88.647,379.255Z" transform="translate(-84.847 -376.022)"/></g><g transform="translate(12.544 21.47)"><path class="g" d="M91.255,371.38c.175.041.127.88.1,1.9s-.033,1.859-.211,1.888-.458-.818-.425-1.907S91.088,371.34,91.255,371.38Z" transform="translate(-90.717 -371.379)"/></g><g transform="translate(21.433 26.167)"><path class="g" d="M99.264,374.617c.144.1-.278.953-.944,1.9s-1.321,1.64-1.465,1.538.278-.953.944-1.9S99.12,374.517,99.264,374.617Z" transform="translate(-96.827 -374.607)"/></g><g transform="translate(26.624 38.29)"><path class="g" d="M104.642,382.989c.067.163-.829.682-2,1.16s-2.175.733-2.242.57.831-.682,2-1.161S104.575,382.826,104.642,382.989Z" transform="translate(-100.395 -382.94)"/></g><g transform="translate(29.383 50.812)"><path class="g" d="M108.026,391.586c.071.154-1.114.832-2.742,1.2s-2.99.273-2.993.1,1.29-.365,2.852-.724S107.955,391.42,108.026,391.586Z" transform="translate(-102.291 -391.547)"/></g><g transform="translate(15.543 43.624)"><path class="g" d="M92.853,390.279c-.167-.052-.045-.917.272-1.931s.711-1.792.879-1.74.047.917-.271,1.931S93.022,390.333,92.853,390.279Z" transform="translate(-92.778 -386.606)"/></g><g transform="translate(18.3 58.055)"><path class="g" d="M94.712,401.477a6.015,6.015,0,0,1,.783-2.6c.594-1.366,1.206-2.417,1.368-2.347a6.015,6.015,0,0,1-.783,2.6C95.486,400.5,94.874,401.547,94.712,401.477Z" transform="translate(-94.673 -396.526)"/></g><g transform="translate(6.766 65.713)"><path class="g" d="M91.6,403.385a6.3,6.3,0,0,1-2.492-.549c-1.327-.416-2.4-.8-2.361-.97a4.7,4.7,0,0,1,2.55.364C90.654,402.651,91.667,403.225,91.6,403.385Z" transform="translate(-86.745 -401.789)"/></g><g transform="translate(11.803 80.091)"><path class="g" d="M93.9,411.7c.1.143-.639.847-1.656,1.571s-1.923,1.2-2.025,1.055.639-.847,1.656-1.573S93.8,411.554,93.9,411.7Z" transform="translate(-90.208 -411.672)"/></g><g transform="translate(14.353 92.801)"><path class="g" d="M96.208,420.494c.041.172-.876.541-2.048.826s-2.158.378-2.2.207.874-.54,2.048-.825S96.166,420.323,96.208,420.494Z" transform="translate(-91.96 -420.409)"/></g><g transform="translate(31.449 61.483)"><path class="g" d="M107.722,398.92c.089.147-.694.773-1.837,1.2s-2.142.48-2.172.31.864-.495,1.948-.906S107.632,398.764,107.722,398.92Z" transform="translate(-103.711 -398.882)"/></g><g transform="translate(33.962 79.507)"><path class="g" d="M109.345,413.151c-.074.16-1.008-.122-2.086-.63s-1.89-1.047-1.816-1.206,1.01.124,2.086.63S109.421,412.992,109.345,413.151Z" transform="translate(-105.439 -411.271)"/></g><g transform="translate(36.841 93.493)"><path class="g" d="M112.7,422.995c-.064.164-1.3-.166-2.756-.738s-2.587-1.167-2.523-1.331,1.3.167,2.756.739S112.762,422.832,112.7,422.995Z" transform="translate(-107.417 -420.884)"/></g><g transform="translate(19.277 102.944)"><path class="g" d="M95.349,431.178c-.087-.16,1.047-.922,2.358-1.958s2.326-1.951,2.462-1.829-.7,1.261-2.067,2.329S95.427,431.33,95.349,431.178Z" transform="translate(-95.345 -427.38)"/></g><g transform="translate(28.897 95.369)"><path class="g" d="M103.583,426.318c-.18.02-.425-.934-.86-2.044s-.886-1.986-.738-2.091.871.659,1.331,1.861S103.752,426.3,103.583,426.318Z" transform="translate(-101.957 -422.173)"/></g><g transform="translate(24.658 80.32)"><path class="g" d="M101.928,413.924c-.1.143-.828-.2-1.621-.773s-1.353-1.146-1.251-1.289.829.2,1.622.773S102.031,413.781,101.928,413.924Z" transform="translate(-99.044 -411.83)"/></g><g transform="translate(50.199 55.593)"><path class="g" d="M120.146,394.859c.1.143-.6.841-1.579,1.561s-1.854,1.19-1.958,1.049.6-.841,1.58-1.561S120.043,394.718,120.146,394.859Z" transform="translate(-116.599 -394.834)"/></g><g transform="translate(52.883 65.824)"><path class="g" d="M123.257,402.457c.016.17-1.091.4-2.462.253s-2.4-.61-2.35-.773,1.114,0,2.418.14S123.244,402.278,123.257,402.457Z" transform="translate(-118.444 -401.866)"/></g><g transform="translate(36.034 68.732)"><path class="g" d="M111.549,403.969c.038.169-.988.535-2.312.621s-2.39-.137-2.374-.308,1.058-.239,2.332-.326S111.511,403.794,111.549,403.969Z" transform="translate(-106.863 -403.864)"/></g><g transform="translate(38.31 56.838)"><path class="g" d="M112.3,397.481c-.012.169-1.049.2-2.182-.329s-1.791-1.322-1.672-1.442c.124-.135.9.394,1.938.863S112.319,397.3,112.3,397.481Z" transform="translate(-108.427 -395.689)"/></g><g transform="translate(54.746 75.21)"><path class="g" d="M124.132,411.113c-.095.148-1.155-.351-2.37-1.116s-2.126-1.506-2.031-1.654,1.154.351,2.37,1.116S124.225,410.965,124.132,411.113Z" transform="translate(-119.724 -408.317)"/></g><g transform="translate(9.274 108.302)"><g transform="translate(0.733)"><rect class="f" width="90.567" height="16.052"/></g><g transform="translate(7.496 12.868)"><path class="f" d="M93.622,439.908l11.013,47.968h53.978l12.049-47.968Z" transform="translate(-93.622 -439.908)"/></g><g transform="translate(0 15.754)"><path class="g" d="M179.719,442.211c0,.175-20.429.317-45.623.317s-45.627-.143-45.627-.317,20.423-.319,45.627-.319S179.719,442.035,179.719,442.211Z" transform="translate(-88.469 -441.892)"/></g></g><g transform="translate(47.899 65.618)"><path class="g" d="M117.276,405.293c-.15.093-.768-.627-1.382-1.611s-.992-1.855-.842-1.949.767.628,1.382,1.612S117.424,405.2,117.276,405.293Z" transform="translate(-115.018 -401.724)"/></g><g transform="translate(50.133 77.426)"><path class="g" d="M116.611,414.516c-.167-.055.045-1.146.473-2.437s.912-2.291,1.08-2.236-.047,1.146-.474,2.437S116.777,414.571,116.611,414.516Z" transform="translate(-116.554 -409.84)"/></g><g transform="translate(52.128 90.54)"><path class="g" d="M120.407,423.975c-.159.076-.835-1.008-1.512-2.421s-1.1-2.62-.937-2.7.835,1.008,1.512,2.421S120.566,423.9,120.407,423.975Z" transform="translate(-117.925 -418.854)"/></g><g transform="translate(45.024 103.22)"><path class="g" d="M113.062,430.919c-.132-.116.409-.956,1.208-1.877s1.555-1.574,1.688-1.459-.407.956-1.208,1.877S113.2,431.034,113.062,430.919Z" transform="translate(-113.042 -427.57)"/></g><g transform="translate(39.255 85.971)"><path class="g" d="M112.858,416.505c-.031.173-.9.164-1.945-.02s-1.867-.474-1.836-.647.9-.163,1.947.02S112.889,416.332,112.858,416.505Z" transform="translate(-109.076 -415.714)"/></g></g></g></g><g transform="translate(290.51 379.819)"><g transform="translate(0 0)"><g transform="translate(25.204 320.324)"><g transform="translate(0 0.239)"><rect class="c" width="214.769" height="171.269"/></g><g class="i" transform="translate(15.647)"><path d="M191.383,355.67c25.284,9.023,53.175,10.946,80.311,11.454,5.619.1,11.31.1,16.748,1.513s10.7,4.466,13.494,9.343c3.041,5.31,2.716,11.958.991,17.828s-4.717,11.281-6.877,17a63.616,63.616,0,0,0-3.39,31.68c.674,4.511,1.883,9.055,4.488,12.8s6.809,6.593,11.37,6.659c8.163.118,13.753-7.906,17.8-14.994,16.6-29.077,34.554-62.134,45.175-93.884Z" transform="translate(-191.383 -355.072)"/></g><g transform="translate(72.798 1.03)"><path class="h" d="M231.046,525.339c-.21,0-.38-37.96-.38-84.775,0-46.832.17-84.785.38-84.785s.378,37.953.378,84.785C231.424,487.379,231.254,525.339,231.046,525.339Z" transform="translate(-230.666 -355.78)"/></g></g><g transform="translate(0 77.124)"><g transform="translate(22.535)"><path class="j" d="M342.646,304.778c-.639-4.27-13.4-18.392-13.4-18.392s-6.382-25.617-8.3-33.171a24.968,24.968,0,0,0-2.776-6.188,49.867,49.867,0,0,0-18.632-17.975l-17.665-9.934-4.228-9.4L235.2,187.908l-11.508,20.3s-27.946,8.882-31.646,15.227S193.88,314.8,193.88,314.8s-11.7,49.064-14.165,59.216.794,22.265.794,22.265l20.816-26.125c6.467-8.117,20.669-11.847,30.868-11.7l87.162.384-3.467-24.414,70.476,13.706s12.126-23.647,13.084-24.123S342.646,304.778,342.646,304.778Z" transform="translate(-178.794 -187.908)"/></g><g transform="translate(77.081 28.267)"><path class="e" d="M216.332,207.353c-.612-.623,4.926,18.08,11.876,37.124a93.678,93.678,0,0,1,5.623,32.106V345.54l41.792-2.838-6.247-45.425s-5.095-29.3-6.522-40.447c-1.3-10.2-5.793-37.876-5.793-37.876S233.832,225.173,216.332,207.353Z" transform="translate(-216.286 -207.338)"/></g><g transform="translate(169.822 116.644)"><path class="g" d="M280.074,285.444a2.635,2.635,0,0,1,0-1.052,15.735,15.735,0,0,1,.55-2.809,18.869,18.869,0,0,1,12.875-12.9,15.545,15.545,0,0,1,2.808-.554,2.621,2.621,0,0,1,1.053,0c.017.129-1.465.287-3.7,1.065a20.062,20.062,0,0,0-12.529,12.555C280.359,283.979,280.2,285.461,280.074,285.444Z" transform="translate(-280.032 -268.083)"/></g><g transform="translate(172.015 115.545)"><path class="g" d="M281.542,269.243c-.092-.164,2.655-1.555,6.38-1.848,3.724-.32,6.662.6,6.6.78-.045.227-2.952-.336-6.535-.025C284.4,268.428,281.623,269.459,281.542,269.243Z" transform="translate(-281.539 -267.328)"/></g><g transform="translate(29.78 144.133)"><g class="i" transform="translate(0 10.954)"><path d="M187.4,294.507l-3.627,4.114c3.886,4.519,8.936,8.312,14.725,9.736s11.8,1.593,17.764,1.608a25.619,25.619,0,0,0,7.184-.684c2.364-.681,4.57-2.025,7.025-2.172a18.294,18.294,0,0,1,4.875.7,9.528,9.528,0,0,0,4.884.079,3.867,3.867,0,0,0,2.843-3.6A257.476,257.476,0,0,0,187.4,294.507Z" transform="translate(-183.774 -294.507)"/></g><g transform="translate(49.251)"><path class="k" d="M291.3,303.207,281.05,292.316l-21.093-5.338s-19.329,5.79-19.792,5.774-16.821-4.469-16.821-4.469l-5.718,20.97,29.464,2.018,33.642-1.346s1.755-1.635.714-2.751,5.624,1.888,6.409,1.925,2.307.639,3.346-.618C291.909,307.624,292.872,304.871,291.3,303.207Z" transform="translate(-217.627 -286.978)"/></g><g transform="translate(90.12 14.251)"><path class="l" d="M268.67,302.719a18.325,18.325,0,0,1-3.352-.954c-2.044-.649-4.874-1.516-8.038-2.326s-6.064-1.41-8.168-1.832a17.93,17.93,0,0,1-3.394-.793,14.4,14.4,0,0,1,3.483.265,74.862,74.862,0,0,1,8.267,1.625,72.081,72.081,0,0,1,8.028,2.556A14.178,14.178,0,0,1,268.67,302.719Z" transform="translate(-245.718 -296.773)"/></g><g transform="translate(90.61 7.948)"><path class="l" d="M278.373,300.722a44.717,44.717,0,0,1-4.679-1.51c-2.872-.969-6.884-2.155-11.348-3.4-4.458-1.325-8.427-2.651-11.435-2.825a27.861,27.861,0,0,0-4.856.191,3.783,3.783,0,0,1,1.263-.426,13.914,13.914,0,0,1,3.624-.3c3.111.044,7.2,1.321,11.613,2.632,4.464,1.245,8.48,2.521,11.32,3.624,1.423.544,2.556,1.029,3.329,1.385A4.3,4.3,0,0,1,278.373,300.722Z" transform="translate(-246.055 -292.441)"/></g></g><g transform="translate(0 35.529)"><path class="j" d="M199.09,212.329s-15.206,10.574-18.9,25.8-19.728,77.4-16.44,86.708,67.223,18.43,67.223,18.43l7.575-31.965-32.467-8.882s.41-29.608.822-41.875S199.09,212.329,199.09,212.329Z" transform="translate(-163.304 -212.329)"/></g><g transform="translate(68.704 139.273)"><path class="e" d="M216.64,283.637l10.463,2.576-6.294,24.127-10.28-1.647Z" transform="translate(-210.528 -283.637)"/></g><g transform="translate(0.147 125.774)"><path class="g" d="M163.459,293.333c.054,0-.029.532.157,1.506a7.092,7.092,0,0,0,2.229,3.63c2.779,2.587,8.083,4.741,14.813,5.953l.022,0,.026.007c3.076,1.011,6.577,1.813,10.324,2.661s7.779,1.7,12.033,2.563c8.508,1.74,17.92,3.569,27.893,5.437l-.434.279,2.259-9.278c1.794-7.335,3.532-14.441,5.179-21.177l.256.438L209.36,277.12l-.016,0-.017-.007a28.51,28.51,0,0,0-12.586-2.2,27.765,27.765,0,0,0-9.5,2.23,32.1,32.1,0,0,0-5.457,3.022c-.55.4-.986.72-1.321.963a2.684,2.684,0,0,1-.468.311,2.675,2.675,0,0,1,.413-.38c.285-.234.7-.6,1.274-1.034a29.479,29.479,0,0,1,5.427-3.188,27.625,27.625,0,0,1,9.6-2.4,28.785,28.785,0,0,1,12.841,2.13l-.032-.01,28.895,8.1.339.1-.084.343c-1.638,6.739-3.368,13.846-5.153,21.184-.775,3.177-1.541,6.313-2.265,9.276l-.084.346-.349-.065c-9.977-1.878-19.387-3.735-27.893-5.515-4.253-.886-8.277-1.769-12.03-2.636s-7.236-1.7-10.366-2.766l.047.013c-6.8-1.295-12.122-3.537-14.927-6.257a7.062,7.062,0,0,1-2.176-3.806A4.45,4.45,0,0,1,163.459,293.333Z" transform="translate(-163.405 -274.359)"/></g><g transform="translate(20.292 119.892)"><path class="g" d="M201.486,278.165c-.089.1-1.173-.9-3.124-2.2a29.824,29.824,0,0,0-17.291-5.035c-2.348.054-3.8.31-3.819.182a11.887,11.887,0,0,1,3.793-.717,26.46,26.46,0,0,1,17.627,5.134A11.9,11.9,0,0,1,201.486,278.165Z" transform="translate(-177.252 -270.316)"/></g><g transform="translate(39.306 75.66)"><path class="g" d="M199.8,239.913a9.519,9.519,0,0,1,.022,1.95c-.028,1.254-.135,3.065-.307,5.3-.358,4.468-1.024,10.631-2.191,17.374a121.071,121.071,0,0,1-4.033,17.054c-.356,1.066-.723,2.016-1.037,2.852-.346.781-.655,1.477-.93,2.1a9.694,9.694,0,0,1-1,1.683,9.559,9.559,0,0,1,.726-1.8c.237-.627.5-1.333.8-2.124.273-.842.6-1.8.922-2.863a150.471,150.471,0,0,0,3.8-17.02c1.162-6.719,1.912-12.852,2.4-17.3.218-2.108.4-3.876.546-5.268A9.858,9.858,0,0,1,199.8,239.913Z" transform="translate(-190.321 -239.913)"/></g><g transform="translate(66.037 20.302)"><path class="g" d="M228.52,240.73c-.049.013-.15-.4-.5-1.075a6.472,6.472,0,0,0-2.187-2.39,5.475,5.475,0,0,0-4.73-.693,6.1,6.1,0,0,0-3.994,4.519l-.2,1.036-.444-.957a101.369,101.369,0,0,1-4.446-11.233c-2.46-7.491-3.521-14.665-3.287-19.847-.007-1.295.182-2.459.256-3.481.176-1.014.306-1.89.463-2.6a12.684,12.684,0,0,1,.645-2.149,50.589,50.589,0,0,0-.828,8.236,62.994,62.994,0,0,0,3.471,19.6,112.673,112.673,0,0,0,4.349,11.179l-.649.079a6.665,6.665,0,0,1,4.494-4.932,5.868,5.868,0,0,1,5.136.9,6.264,6.264,0,0,1,2.15,2.635,4.367,4.367,0,0,1,.275.86C228.528,240.621,228.539,240.725,228.52,240.73Z" transform="translate(-208.695 -201.863)"/></g><g transform="translate(120.622 21.807)"><path class="g" d="M246.925,243.534a10.3,10.3,0,0,1-.336-1.731,18.061,18.061,0,0,1-.308-4.877,10.209,10.209,0,0,1,3.508-6.444,6.675,6.675,0,0,1,4.229-1.519,5.769,5.769,0,0,1,4.453,1.992l-.642.368c-.444-1.116-.908-2.286-1.381-3.477-2.715-6.854-5.131-13.073-6.845-17.588l-1.993-5.36a11.107,11.107,0,0,1-.633-2,11.386,11.386,0,0,1,.909,1.9c.579,1.378,1.325,3.15,2.219,5.275,1.842,4.468,4.338,10.657,7.053,17.511.47,1.192.933,2.364,1.373,3.48l.886,2.246-1.529-1.878a5.063,5.063,0,0,0-3.876-1.747,6.026,6.026,0,0,0-3.813,1.322,9.862,9.862,0,0,0-3.425,5.99,20.653,20.653,0,0,0,.083,4.775A7.3,7.3,0,0,1,246.925,243.534Z" transform="translate(-246.214 -202.897)"/></g><g transform="translate(148.306 66.054)"><path class="g" d="M265.253,233.31c.207-.029,3.495,22.089,7.341,49.4s6.8,49.477,6.592,49.506-3.493-22.083-7.343-49.4S265.045,233.339,265.253,233.31Z" transform="translate(-265.243 -233.31)"/></g><g class="i" transform="translate(69.801 48.613)"><path d="M211.282,221.322a45.629,45.629,0,0,0,3.623,16.43c1.584-1.955,3.342-4.024,5.751-4.6,3.006-.719,6.043,1.139,8.214,3.394a14.9,14.9,0,0,0-2.623-6.276,7.356,7.356,0,0,0-5.767-3.014,5.1,5.1,0,0,0-4.855,3.959l-4.17-9.794" transform="translate(-211.282 -221.322)"/></g><g transform="translate(31.064 43.566)"><path class="g" d="M198.823,238.887c-.14,0-.093-1.523-.532-3.9a23.789,23.789,0,0,0-3.538-8.654,25.473,25.473,0,0,0-3.326-3.953,22.436,22.436,0,0,0-3.335-2.6c-2.043-1.29-3.484-1.785-3.435-1.919a2.972,2.972,0,0,1,1.045.255,7.837,7.837,0,0,1,1.173.457,12.869,12.869,0,0,1,1.494.748,19.937,19.937,0,0,1,3.532,2.543,23.479,23.479,0,0,1,3.482,4.045,21.614,21.614,0,0,1,3.436,8.988,15.071,15.071,0,0,1,.143,2.921A2.932,2.932,0,0,1,198.823,238.887Z" transform="translate(-184.656 -217.853)"/></g></g><g transform="translate(57.683)"><g transform="translate(14.404 10.036)"><path class="k" d="M270.439,169.657a31.171,31.171,0,0,0-31.8-27.852l-1.613.042c-17.377,1.464-25.84,17.038-23.9,34.367l4.768,60.951,2.019,2.478a32.612,32.612,0,0,0,38.709,9.123h0l-1.336-19.607s16.663-3.032,16.44-19.763C273.618,201.313,272.041,184.686,270.439,169.657Z" transform="translate(-212.853 -141.795)"/></g><g transform="translate(36.887 91.522)"><path class="l" d="M250.389,203.655a40.592,40.592,0,0,1-22.082-5.851s5.463,11.905,22.115,9.97Z" transform="translate(-228.307 -197.804)"/></g><g transform="translate(61.938 49.637)"><path class="g" d="M250.289,171.115a2.389,2.389,0,0,1-2.24,2.469,2.285,2.285,0,0,1-2.518-2.091,2.391,2.391,0,0,1,2.239-2.47A2.287,2.287,0,0,1,250.289,171.115Z" transform="translate(-245.526 -169.015)"/></g><g transform="translate(59.42 42.41)"><path class="g" d="M252.14,164.278c-.188.294-2.086.495-4.347,1.718-2.265,1.2-3.623,2.748-3.94,2.726-.153,0-.016-.423.57-1.106a11.059,11.059,0,0,1,3.065-2.373,9.885,9.885,0,0,1,3.55-1.176C251.872,163.99,252.237,164.14,252.14,164.278Z" transform="translate(-243.795 -164.047)"/></g><g transform="translate(37.792 50.906)"><path class="g" d="M233.692,171.987a2.39,2.39,0,0,1-2.242,2.469,2.285,2.285,0,0,1-2.517-2.091,2.391,2.391,0,0,1,2.239-2.47A2.287,2.287,0,0,1,233.692,171.987Z" transform="translate(-228.929 -169.886)"/></g><g transform="translate(33.044 43.486)"><path class="g" d="M234.81,167.46c-.335.073-1.893-.981-4.386-1.595-2.486-.63-4.514-.471-4.738-.684-.112-.1.262-.285,1.152-.364a12.267,12.267,0,0,1,3.851.37,10.9,10.9,0,0,1,3.432,1.449C234.794,167.106,234.97,167.431,234.81,167.46Z" transform="translate(-225.666 -164.787)"/></g><g transform="translate(50.521 44.748)"><path class="g" d="M239.431,187.042c-.016-.145,1.574-.464,4.155-.861.655-.084,1.273-.231,1.372-.682a3.357,3.357,0,0,0-.489-1.934q-.986-2.359-2.069-4.948c-2.879-7.047-4.98-12.846-4.7-12.961s2.85,5.507,5.728,12.553q1.041,2.608,1.989,4.98a3.8,3.8,0,0,1,.407,2.568,1.65,1.65,0,0,1-1.055.988,4.5,4.5,0,0,1-1.111.183C241.06,187.134,239.444,187.187,239.431,187.042Z" transform="translate(-237.678 -165.654)"/></g><g transform="translate(30.45 34.049)"><path class="g" d="M235.659,160.478c-.287.687-2.836.231-5.866.448-3.035.156-5.508.919-5.878.274-.163-.308.292-.944,1.308-1.573a10.233,10.233,0,0,1,8.946-.55C235.254,159.576,235.784,160.152,235.659,160.478Z" transform="translate(-223.883 -158.3)"/></g><g transform="translate(56.779 34.192)"><path class="g" d="M252.9,161c-.559.589-2.773.006-5.428,0-2.657-.076-4.9.442-5.425-.163-.23-.294.118-.883,1.1-1.446a8.932,8.932,0,0,1,4.4-1,8.767,8.767,0,0,1,4.343,1.129C252.833,160.119,253.147,160.718,252.9,161Z" transform="translate(-241.98 -158.398)"/></g><g transform="translate(10.761)"><path class="g" d="M276.458,158a3.2,3.2,0,0,0-3.351-2.574,6.744,6.744,0,0,0,2.307-1.176,2.3,2.3,0,0,0,.791-2.332c-.429-1.293-2.085-1.56-3.4-1.932a8.6,8.6,0,0,1-4.365-2.913c-1.59-2.009-2.2-4.622-3.576-6.784a11.114,11.114,0,0,0-17.242-1.9,11.569,11.569,0,0,0-18.606,2.836A13.5,13.5,0,0,0,210.537,156l10.418,6.385a5.629,5.629,0,0,1,6.863-4.882c3.144.909,5.156,4.551,8.421,4.8,2.542.194,4.7-1.776,7.165-2.435,2.988-.8,6.142.4,8.837,1.915s5.255,3.406,8.253,4.164c3.516.887,7.261.109,10.616-1.264a11.081,11.081,0,0,0,3.93-2.431A4.9,4.9,0,0,0,276.458,158Z" transform="translate(-210.349 -134.896)"/></g><g transform="translate(8.708 7.218)"><path class="g" d="M223.408,155.214l47.714-.274a21.83,21.83,0,0,0-7.231-7.909,37.267,37.267,0,0,0-21.807-7.172c-7.781.08-23.349,9.992-28.834,15.51-4.388,4.417-4.257,8.13-4.257,8.13-.544,6.2,3.112,13.134,4.656,19.166.8,3.11,2.43,12.544,2.43,12.544h0c2.627-.081,3.544-2.2,3.074-4.786l-.775-10.177s8.76-6.6,4.2-18.1C221.876,161.237,220.309,157.031,223.408,155.214Z" transform="translate(-208.938 -139.858)"/></g><g transform="translate(0 20.962)"><path class="g" d="M220.358,175.271c-2.428-8.45-4.658-17.5-2.078-25.908l-1.417-.058-.591.432a6.674,6.674,0,0,0-7.5,10.287,5.77,5.77,0,0,0-5.8,5.05,10.718,10.718,0,0,0,1.535,5.574,12.984,12.984,0,0,1,1.813,5.515c.013,1.952-1.237,4.072-3.176,4.3a4.767,4.767,0,0,0,5.4,2.626,9.441,9.441,0,0,1-3.278,4.133c3.108,2.117,7.375,1.394,10.756-.252,2.006-.978,3.975-2.37,4.792-4.445C221.731,180.232,221.04,177.647,220.358,175.271Z" transform="translate(-202.953 -149.305)"/></g><g transform="translate(5.677 56.338)"><path class="k" d="M217.8,174.056c-.288-.116-11.579-3.1-10.92,8.322s11.994,8.408,12,8.079S217.8,174.056,217.8,174.056Z" transform="translate(-206.855 -173.62)"/></g><g transform="translate(9.608 60.1)"><path class="l" d="M214.915,185.126c-.052-.034-.192.151-.519.324a2,2,0,0,1-1.485.116c-1.232-.374-2.36-2.232-2.534-4.287a6.585,6.585,0,0,1,.393-2.882,2.3,2.3,0,0,1,1.408-1.613,1.014,1.014,0,0,1,1.208.477c.172.311.112.543.173.559.033.028.234-.205.115-.672a1.267,1.267,0,0,0-.49-.69,1.5,1.5,0,0,0-1.117-.227,2.8,2.8,0,0,0-1.977,1.891,6.76,6.76,0,0,0-.506,3.224c.205,2.3,1.509,4.385,3.188,4.766a2.125,2.125,0,0,0,1.8-.407C214.91,185.4,214.956,185.143,214.915,185.126Z" transform="translate(-209.557 -176.206)"/></g><g transform="translate(4.526 23.014)"><path class="h" d="M206.3,175c-.032.022-.32-.431-.21-1.33a4.3,4.3,0,0,1,2.136-2.978,13.182,13.182,0,0,1,5.235-1.264c1.922-.208,4.117-.754,5.216-2.649a9.485,9.485,0,0,0,.895-6c-.272-1.919-.78-3.663-1.03-5.162-.605-3.025-.026-4.954.077-4.9a21.933,21.933,0,0,0,.538,4.776c.323,1.458.892,3.153,1.228,5.173a9.992,9.992,0,0,1-.949,6.579,5.647,5.647,0,0,1-2.724,2.3,11.351,11.351,0,0,1-3.157.694,13.616,13.616,0,0,0-5.024,1,4.133,4.133,0,0,0-2.1,2.5A9.894,9.894,0,0,0,206.3,175Z" transform="translate(-206.064 -150.715)"/></g><g transform="translate(1.614 21.71)"><path class="h" d="M204.452,170.423c-.045.017-.253-.326-.354-1.033a4.956,4.956,0,0,1,.569-2.939,5.191,5.191,0,0,1,1.357-1.631,5.875,5.875,0,0,1,2.194-1.024,6.312,6.312,0,0,0,2.169-.89,2.627,2.627,0,0,0,.861-2.094c.033-.871-.1-1.788-.079-2.7a13.417,13.417,0,0,1,.292-2.594,12.456,12.456,0,0,1,1.64-4.084,3.146,3.146,0,0,1,2.53-1.609c.757.007,1.072.348,1.039.377-.031.071-.381-.129-1.013-.031a2.9,2.9,0,0,0-2.024,1.6,13.224,13.224,0,0,0-1.368,3.909,13.7,13.7,0,0,0-.224,2.44c-.012.842.128,1.739.095,2.734a3.468,3.468,0,0,1-1.206,2.741,6.742,6.742,0,0,1-2.494,1,4.726,4.726,0,0,0-3.224,2.176A6.4,6.4,0,0,0,204.452,170.423Z" transform="translate(-204.062 -149.819)"/></g><g transform="translate(18.04 6.169)"><path class="h" d="M266.18,145.154c.071.016-.864.624-2.361-.081a6.712,6.712,0,0,1-2.156-1.837,9.272,9.272,0,0,0-2.654-2.352,7.935,7.935,0,0,0-8.617.57c-1.414,1.026-2.664,2.456-4.308,3.653a7.4,7.4,0,0,1-2.859,1.322,6.191,6.191,0,0,1-3.253-.308c-2.06-.739-3.685-2-5.463-2.646a14.378,14.378,0,0,0-5.366-.966,14.174,14.174,0,0,0-8.654,2.977,15.61,15.61,0,0,0-4.085,4.788c-.713,1.327-.97,2.134-1.043,2.11-.029-.009.01-.217.113-.608a12.027,12.027,0,0,1,.62-1.659,14.8,14.8,0,0,1,4-5.123,14.568,14.568,0,0,1,9.035-3.305,15.039,15.039,0,0,1,5.688.97c1.918.7,3.577,1.964,5.444,2.622a5.318,5.318,0,0,0,2.8.278,6.58,6.58,0,0,0,2.518-1.161c1.536-1.1,2.815-2.53,4.331-3.608a8.291,8.291,0,0,1,4.993-1.651,8.812,8.812,0,0,1,4.42,1.2,9.5,9.5,0,0,1,2.722,2.581,6.747,6.747,0,0,0,1.934,1.849A3.239,3.239,0,0,0,266.18,145.154Z" transform="translate(-215.353 -139.137)"/></g><g transform="translate(45.709 69.128)"><path class="g" d="M234.582,182.414c.362-.083.778,2.36,3.161,3.742s4.939.675,5.015,1.014c.061.147-.5.572-1.593.786a6.163,6.163,0,0,1-4.164-.707,5.369,5.369,0,0,1-2.494-3.163C234.243,183.079,234.413,182.428,234.582,182.414Z" transform="translate(-234.371 -182.412)"/></g></g><g transform="translate(21.415 244.205)"><g transform="translate(206.846 46.9)"><path class="f" d="M346.1,340.332a22.372,22.372,0,0,0-16.075-5.3L320.2,366.272c7.2.317,14.391,4.033,21.347,2.128a15.228,15.228,0,0,0,10.6-12.513A18.092,18.092,0,0,0,346.1,340.332Z" transform="translate(-320.2 -334.988)"/></g><g transform="translate(208.626 45.774)"><path class="a" d="M329.647,334.645c.02-.253,1.068-.448,2.978-.429a24.238,24.238,0,0,1,8.048,1.516,21.886,21.886,0,0,1,9.8,7.609,20.271,20.271,0,0,1,3.269,6.777,17.884,17.884,0,0,1,.243,8.2,16.558,16.558,0,0,1-3.573,7.459,15.6,15.6,0,0,1-6.343,4.4,22.694,22.694,0,0,1-12.366.8,38.632,38.632,0,0,1-7.709-2.393c-1.733-.749-2.639-1.3-2.563-1.545s1.136-.178,2.98.129c1.842.291,4.468.866,7.666,1.155a22.035,22.035,0,0,0,10.683-1.381,12.606,12.606,0,0,0,4.81-3.548,13.427,13.427,0,0,0,2.706-5.835,16.114,16.114,0,0,0-2.662-12.214,21.013,21.013,0,0,0-8.009-7.154,36.408,36.408,0,0,0-7.172-2.51C330.64,335.215,329.626,334.912,329.647,334.645Z" transform="translate(-321.423 -334.214)"/></g><g transform="translate(104.357 163.401)"><path class="f" d="M271.14,415.065l-21.386,59.921,74.415,26.991c2.143-7.266-31.179-35.5-31.179-35.5l15.279-37.831Z" transform="translate(-249.754 -415.065)"/><g class="m" transform="translate(18.016 39.813)"><path class="e" d="M265.516,442.457a3.234,3.234,0,0,0-3.359,2.706,3.108,3.108,0,0,0,2.652,3.353c1.581.156,3.527-1.3,3.543-2.884s-1.574-3.41-3.145-3.183" transform="translate(-262.138 -442.431)"/></g><g transform="translate(0 53.873)"><path class="e" d="M249.754,458.143l2.158-6.048,70.687,28.2s2.79,2.642,1.57,4.84Z" transform="translate(-249.754 -452.095)"/></g><g transform="translate(36.303 50.375)"><path class="g" d="M282.984,450.785c-.144.358-2.021-.135-4.232.384-2.226.461-3.719,1.7-4,1.436-.308-.192,1.021-2.168,3.71-2.75C281.143,449.249,283.183,450.48,282.984,450.785Z" transform="translate(-274.707 -449.69)"/></g><g transform="translate(44.381 57.074)"><path class="g" d="M287.092,454.749c-.045.383-1.843.429-3.634,1.519-1.823,1.036-2.738,2.585-3.093,2.438-.364-.067.157-2.286,2.411-3.6C285.018,453.777,287.21,454.4,287.092,454.749Z" transform="translate(-280.259 -454.295)"/></g><g transform="translate(52.1 63.159)"><path class="g" d="M285.724,463.8c-.358-.042-.205-2.041,1.449-3.692s3.641-1.827,3.685-1.469c.1.374-1.394,1.042-2.731,2.418C286.758,462.4,286.1,463.892,285.724,463.8Z" transform="translate(-285.565 -458.477)"/></g><g transform="translate(39.221 39.423)"><path class="g" d="M284.6,445.2c-.273.275-1.759-.831-3.863-1.436-2.092-.647-3.941-.538-4.017-.918-.115-.339,1.934-1.119,4.4-.371C283.593,443.2,284.879,444.98,284.6,445.2Z" transform="translate(-276.713 -442.162)"/></g><g transform="translate(38.685 23.449)"><path class="g" d="M286.195,440.723c-.051.153-1.568-.144-3.72-1.37a17.849,17.849,0,0,1-3.466-2.612,18.657,18.657,0,0,1-1.728-1.913,4.825,4.825,0,0,1-.806-1.285,1.683,1.683,0,0,1,.534-1.993,2.122,2.122,0,0,1,1.893-.253,5.171,5.171,0,0,1,1.328.7,14.32,14.32,0,0,1,2.028,1.635,13.972,13.972,0,0,1,2.619,3.5c1.146,2.225,1.244,3.8,1.094,3.82-.208.06-.636-1.382-1.915-3.339a15.771,15.771,0,0,0-2.643-3.078,14.736,14.736,0,0,0-1.9-1.436c-.713-.493-1.381-.742-1.711-.464-.122.108-.15.157-.068.447a3.86,3.86,0,0,0,.6.94,20.684,20.684,0,0,0,1.56,1.839,21.883,21.883,0,0,0,3.1,2.689C284.906,439.92,286.272,440.528,286.195,440.723Z" transform="translate(-276.344 -431.182)"/></g><g transform="translate(47.708 22.463)"><path class="g" d="M282.712,441.38c-.15.01-.4-1.554.322-3.956a12.828,12.828,0,0,1,3.758-5.814,3.279,3.279,0,0,1,3.061-1.02,1.853,1.853,0,0,1,1.18,1.6,5.421,5.421,0,0,1-.113,1.506,8.877,8.877,0,0,1-.908,2.511,9.117,9.117,0,0,1-2.988,3.272c-2.153,1.4-3.828,1.285-3.813,1.151-.055-.227,1.466-.469,3.25-1.918a9.106,9.106,0,0,0,2.449-3.074,8.144,8.144,0,0,0,.713-2.178c.172-.834.106-1.58-.22-1.606a2.27,2.27,0,0,0-1.746.748A13.188,13.188,0,0,0,286,434.292a14.287,14.287,0,0,0-2.07,3.457C283.035,439.9,282.929,441.4,282.712,441.38Z" transform="translate(-282.546 -430.505)"/></g></g><g transform="translate(0 1.89)"><path class="g" d="M231.666,305.515c-11.288.262-22,1.858-29.771,10.046-10.311,10.859-23.064,26.327-23.788,37.055-1.081,16.034,8.591,20.8,15.654,24.709a19.585,19.585,0,0,0,10.252,2.371l130.473-.991,4.1-22.1L254.2,335.81l3.5-31.76Z" transform="translate(-178.024 -304.05)"/></g><g transform="translate(76.174)"><path class="g" d="M233.887,304.641l41.044-1.89s70.9,3.941,86.026,17.8,13.233,29.617,8.192,44.741-49.468,111.852-49.468,111.852,3.6,6.148,1.576,12.288a16.218,16.218,0,0,1-11.587,11.035l-39.456-14.5s-5.357-1.891-1.576-6.932,6.3-5.987,6.3-5.987V462.97S288.8,437.765,290.065,434.3s14.549-54.767,14.549-54.767l8.827-15.168s-21.349-10.037-39.849-17.313L230.382,336.4Z" transform="translate(-230.382 -302.751)"/></g><g transform="translate(120.269 171.424)"><path class="h" d="M286.672,430.549c-.08.1-1.324-.889-3.463-2.27a46.724,46.724,0,0,0-18.423-7c-2.517-.388-4.1-.48-4.1-.6a15.4,15.4,0,0,1,4.164.071,39.331,39.331,0,0,1,18.656,7.092A15.393,15.393,0,0,1,286.672,430.549Z" transform="translate(-260.691 -420.58)"/></g><g transform="translate(152.549 156.236)"><path class="h" d="M296.3,428.371a13.66,13.66,0,0,1-2.293-2.414c-1.33-1.563-3.1-3.777-4.958-6.3s-3.444-4.874-4.539-6.608a13.708,13.708,0,0,1-1.622-2.907,15.609,15.609,0,0,1,2.066,2.6c1.376,1.891,2.959,4.063,4.705,6.462,1.771,2.38,3.372,4.536,4.769,6.414A15.581,15.581,0,0,1,296.3,428.371Z" transform="translate(-282.879 -410.14)"/></g><g transform="translate(158.166 47.738)"><path class="h" d="M309,335.586c.023.124-1.449.436-3.738,1.2a39.285,39.285,0,0,0-15.806,9.867c-1.688,1.723-2.616,2.908-2.716,2.833a13.556,13.556,0,0,1,2.325-3.2,33.525,33.525,0,0,1,16.04-10.015A13.573,13.573,0,0,1,309,335.586Z" transform="translate(-286.739 -335.563)"/></g><g transform="translate(140.063 40.489)"><path class="h" d="M274.3,406.349a3.841,3.841,0,0,1,.162-.853c.159-.63.359-1.426.607-2.4.585-2.178,1.385-5.162,2.364-8.8,2.091-7.5,4.933-17.7,8.074-28.971,1.638-5.649,3.044-11.039,4.622-15.919a33.19,33.19,0,0,1,7.429-11.335,42.343,42.343,0,0,1,7.055-5.814c.912-.579,1.624-1.018,2.128-1.283a3.654,3.654,0,0,1,.777-.383c.035.058-.986.671-2.74,1.909a46.91,46.91,0,0,0-6.833,5.942,33.4,33.4,0,0,0-7.161,11.205c-1.516,4.811-2.92,10.263-4.551,15.893-3.223,11.243-6.14,21.418-8.285,28.9-1.075,3.617-1.954,6.577-2.6,8.738l-.743,2.366A3.641,3.641,0,0,1,274.3,406.349Z" transform="translate(-274.296 -330.581)"/></g><g transform="translate(100.619 8.018)"><path class="h" d="M250.329,342.608c-.208.019-1.071-7.655-1.926-17.138s-1.381-17.189-1.173-17.208,1.071,7.654,1.928,17.14S250.537,342.589,250.329,342.608Z" transform="translate(-247.185 -308.262)"/></g><g transform="translate(16.529 48.049)"><path class="h" d="M208.307,350.58c-.115.057-.749-1.184-2.034-3a29.534,29.534,0,0,0-13.479-10.532c-2.078-.806-3.435-1.12-3.409-1.245a11.086,11.086,0,0,1,3.589.74,25.876,25.876,0,0,1,13.746,10.74A11.081,11.081,0,0,1,208.307,350.58Z" transform="translate(-189.385 -335.778)"/></g><g transform="translate(25.248 27.847)"><path class="h" d="M230.727,329.039c-.073.116-1.813-1-4.827-2.371a45.492,45.492,0,0,0-25.223-3.618c-3.279.467-5.261,1.049-5.3.917a5.388,5.388,0,0,1,1.36-.516,29.555,29.555,0,0,1,3.852-.93,41.279,41.279,0,0,1,25.539,3.665,29.516,29.516,0,0,1,3.436,1.976A5.324,5.324,0,0,1,230.727,329.039Z" transform="translate(-195.378 -321.891)"/></g><g transform="translate(59.113 34.666)"><path class="h" d="M318.418,346.338a5.236,5.236,0,0,1-1.023-.169l-2.9-.629-10.634-2.389c-8.981-2.012-21.4-4.708-35.176-7.437s-26.292-4.967-35.362-6.528l-10.743-1.842-2.918-.524a5.374,5.374,0,0,1-1.01-.233,5.274,5.274,0,0,1,1.033.082c.748.1,1.724.225,2.94.383,2.552.345,6.237.89,10.785,1.606,9.1,1.426,21.634,3.585,35.421,6.313s26.2,5.512,35.149,7.658c4.477,1.072,8.092,1.971,10.583,2.625l2.865.767A5.434,5.434,0,0,1,318.418,346.338Z" transform="translate(-218.655 -326.579)"/></g><g transform="translate(53.474 17.332)"><path class="h" d="M237.479,334.728a44.743,44.743,0,0,0-1.807-4.17,18.343,18.343,0,0,0-2.984-3.861,48.175,48.175,0,0,0-4.57-3.95,68.856,68.856,0,0,0-9.346-5.8,30.937,30.937,0,0,1-3.992-2.27,24.957,24.957,0,0,1,4.235,1.792,54.246,54.246,0,0,1,9.566,5.681,42.248,42.248,0,0,1,4.609,4.066,17.246,17.246,0,0,1,2.955,4.093,14.282,14.282,0,0,1,1.165,3.19A3.6,3.6,0,0,1,237.479,334.728Z" transform="translate(-214.779 -314.664)"/></g><g transform="translate(215.237 57.116)"><path class="g" d="M332.223,342.018c.167.161-2.015,2.367-3.714,5.72-1.736,3.337-2.255,6.4-2.485,6.353-.186,0,.009-3.224,1.81-6.7C329.607,343.9,332.114,341.865,332.223,342.018Z" transform="translate(-325.967 -342.009)"/></g></g><g class="i" transform="translate(149.523 152.234)"><path d="M266.079,239.535l9.339,65.789.466,1.052A141.146,141.146,0,0,0,266.079,239.535Z" transform="translate(-266.079 -239.535)"/></g><g transform="translate(94.44 188.344)"><path class="c" d="M333.6,266.053l-30.369,53.113L228.4,320.792l-.186,3.39,72.451-.538,2.3-.079,76.508.151,15.459-26.665,19.75-28.3a2.793,2.793,0,0,0-2.3-4.392l-76.37.291A2.792,2.792,0,0,0,333.6,266.053Z" transform="translate(-228.218 -264.355)"/><g transform="translate(141.914 32.697)"><path class="k" d="M350.564,286.829s3.931,3.6,3.311,6.665-.415,5.338-3.311,5.544a4.406,4.406,0,0,1-3.931,4.552s.886,4.8-4.7,5.627c0,0-1.714,5.133-5.232,3.89a31.083,31.083,0,0,1-5.795-2.69l-1.034-1.861s-5.182-1.95-3.906-4.875c.775-1.776,3.457-2.239,3.457-2.239s-1.116-2.6.332-4.549c1.242-1.67,5.288-.29,5.288-.29a5.7,5.7,0,0,1,1.282-3.96c1.376-1.634,7.818,2.8,7.818,2.8l3.513-4.2Z" transform="translate(-325.763 -286.829)"/><g transform="translate(3.656 14.601)"><path class="l" d="M340.789,304.653c-.111.178-3-1.418-6.455-3.566s-6.166-4.03-6.055-4.209,3,1.418,6.455,3.566S340.9,304.476,340.789,304.653Z" transform="translate(-328.276 -296.865)"/></g><g transform="translate(9.276 9.76)"><path class="l" d="M343.733,300.539c-.109.179-2.79-1.24-5.991-3.169s-5.707-3.639-5.6-3.818,2.79,1.238,5.991,3.169S343.841,300.36,343.733,300.539Z" transform="translate(-332.139 -293.537)"/></g><g transform="translate(14.463 6.205)"><path class="l" d="M335.707,291.117c.116-.214,2.517,1.053,5.312,2.821a48.5,48.5,0,0,1,5,3.314c-.106.247-2.6-.886-5.4-2.671S335.624,291.273,335.707,291.117Z" transform="translate(-335.704 -291.094)"/></g></g><g transform="translate(78.078 1.623)"><path class="g" d="M390.284,265.86a1.349,1.349,0,0,1-.367.039l-1.074.038-4.132.071-15.193.121-50.126.111h-3.649a3.009,3.009,0,0,0-2.782,1.314q-1.726,3.114-3.4,6.132l-6.449,11.642-10.959,19.69-7.446,13.242q-1.3,2.27-2.057,3.582l-.551.921a1.252,1.252,0,0,1-.211.3,1.381,1.381,0,0,1,.143-.339c.129-.256.29-.57.487-.959q.7-1.333,1.934-3.652l7.235-13.36c3.089-5.645,6.752-12.34,10.818-19.77l6.412-11.662,3.419-6.185a3.774,3.774,0,0,1,3.41-1.654h3.649l50.126.112,15.193.119,4.132.071,1.074.038A1.4,1.4,0,0,1,390.284,265.86Z" transform="translate(-281.885 -265.47)"/></g><g transform="translate(131.602 27.399)"><path class="e" d="M319.71,284.5a3.228,3.228,0,1,0,4.823-.57A3.449,3.449,0,0,0,319.71,284.5Z" transform="translate(-318.675 -283.188)"/></g></g></g><g class="i" transform="translate(13.285 194.716)"><path d="M173.831,270.535c-.649.26-1.388.694-1.4,1.394a1.28,1.28,0,0,0,1.075,1.141c.554.119,2.555-.71,3.108-.832,7.863-1.737,14.348-.073,21.843,2.873l.243-.25C195.714,268.55,182.291,267.128,173.831,270.535Z" transform="translate(-172.436 -268.735)"/></g></g><g transform="translate(122.728 871.273)"><g transform="translate(0)"><path class="g" d="M635.8,473.076c0,.209-131.6.38-293.9.38-162.356,0-293.927-.17-293.927-.38s131.57-.378,293.927-.378C504.2,472.7,635.8,472.867,635.8,473.076Z" transform="translate(-47.979 -472.698)"/></g></g><g transform="translate(251.47 292.233)"><g transform="translate(0 0)"><g transform="translate(0 56.697)"><path class="h" d="M149.488,172.651c.252.252,48.56-16.356,48.56-16.356l-18.574-42.63-43,16.441L160.126,143.7Z" transform="translate(-136.47 -113.665)"/></g><g transform="translate(35.679)"><path class="h" d="M160.994,144.238V86.19S227.64,74.009,275.653,74.724s97.461,8.6,97.461,8.6V139.05S222.623,125.605,160.994,144.238Z" transform="translate(-160.994 -74.694)"/></g><g transform="translate(35.333 64.356)"><path class="g" d="M160.756,124.165,187,154.153V118.929S165.049,121.555,160.756,124.165Z" transform="translate(-160.756 -118.929)"/></g><g transform="translate(35.089 11.493)"><path class="g" d="M161.178,82.594c.21,0,.3,13.009.205,29.049s-.342,29.048-.551,29.048-.3-13.006-.207-29.052S160.969,82.594,161.178,82.594Z" transform="translate(-160.588 -82.594)"/></g><g transform="translate(221.827 52.245)"><path class="h" d="M337.5,169.589c-.252.252-48.562-16.356-48.562-16.356L307.519,110.6l43,16.441-23.656,13.591Z" transform="translate(-288.943 -110.605)"/></g><g transform="translate(221.827 62.451)"><path class="g" d="M315.189,120.309l-26.246,29.986V117.62A193.373,193.373,0,0,1,315.189,120.309Z" transform="translate(-288.943 -117.62)"/></g><g transform="translate(247.533 8.633)"><path class="g" d="M306.878,80.628c.209,0,.441,12.65.516,28.252s-.033,28.256-.243,28.258-.439-12.647-.515-28.255S306.669,80.629,306.878,80.628Z" transform="translate(-306.612 -80.628)"/></g><g transform="translate(73.179 23.394)"><path class="e" d="M186.854,102.966c-.643-4.628,2.451-8.432,7.232-9.1a8,8,0,0,1,6.694,1.845l-1.989,2.421a4.99,4.99,0,0,0-4.109-1.263,4.96,4.96,0,0,0,1.362,9.826,4.942,4.942,0,0,0,3.608-2.355l2.574,1.788a7.964,7.964,0,0,1-5.959,3.621C191.507,110.413,187.5,107.594,186.854,102.966Z" transform="translate(-186.77 -89.411)"/><path class="e" d="M197.756,101.369c-.47-4.581,2.748-8.339,7.616-8.84,4.845-.5,8.78,2.5,9.253,7.1s-2.77,8.342-7.615,8.84C202.144,108.973,198.228,105.948,197.756,101.369Zm13.258-1.363a4.849,4.849,0,1,0-4.317,5.428A4.728,4.728,0,0,0,211.014,100.005Z" transform="translate(-181.794 -90)"/><path class="e" d="M226.019,106.821l-.62-9.276-4.058,7.935-1.613.1-5.006-7.154.583,9.078-3.356.217-1-15.462,2.959-.191,6.406,9.237,5.08-9.976,2.939-.189,1.039,15.459Z" transform="translate(-175.77 -90.605)"/><path class="e" d="M239.326,96.344c.1,3.452-2.433,5.673-6.572,5.789l-3.121.087.121,4.273-3.586.1L225.733,91.1l6.707-.188C236.579,90.8,239.228,92.87,239.326,96.344Zm-3.63.1c-.048-1.7-1.183-2.668-3.374-2.607l-2.921.081.151,5.379,2.921-.081C234.664,99.156,235.742,98.128,235.7,96.446Z" transform="translate(-169.047 -90.714)"/><path class="e" d="M236.948,90.774h3.585v12.571H248.3v2.921H236.948Z" transform="translate(-163.946 -90.774)"/><path class="e" d="M258.131,103.769l-.083,2.876-12-.349.451-15.491,11.709.339-.084,2.878-8.144-.237-.1,3.365,7.193.208-.08,2.789-7.194-.209-.1,3.586Z" transform="translate(-159.806 -90.76)"/><path class="e" d="M260.454,94.307l-4.948-.3.177-2.916,13.473.812-.176,2.916-4.948-.3-.757,12.545-3.579-.215Z" transform="translate(-155.505 -90.628)"/><path class="e" d="M277.678,105.449l-.266,2.866-11.947-1.107,1.43-15.43,11.661,1.079-.265,2.866-8.112-.751-.31,3.349,7.164.665-.258,2.777-7.164-.665-.33,3.572Z" transform="translate(-150.975 -90.317)"/><path class="e" d="M277.578,92.786l6.975.933c5.022.671,8.061,4.158,7.44,8.808s-4.468,7.216-9.491,6.545l-6.975-.933Zm5.137,13.345c3.049.407,5.288-1.146,5.681-4.085s-1.36-5.027-4.41-5.434l-3.244-.434-1.272,9.518Z" transform="translate(-146.398 -89.859)"/></g></g></g><g transform="translate(260.994 279.307)"><g transform="translate(268.096 22.141)"><path class="h" d="M327.293,85.724l3.8,4.473,10.735-4.473-3.131-4.7Z" transform="translate(-327.293 -81.028)"/></g><g transform="translate(251.994 0)"><path class="f" d="M327.407,71.4a5.591,5.591,0,1,1-5.591-5.591A5.591,5.591,0,0,1,327.407,71.4Z" transform="translate(-316.225 -65.809)"/></g><g transform="translate(132.435 86.125)"><path class="f" d="M239.637,127.8a2.8,2.8,0,1,1-2.8-2.795A2.8,2.8,0,0,1,239.637,127.8Z" transform="translate(-234.046 -125.007)"/></g><g transform="translate(3.643 44.814)"><path class="f" d="M149.762,98.733a2.12,2.12,0,1,1-2.121-2.121A2.122,2.122,0,0,1,149.762,98.733Z" transform="translate(-145.521 -96.612)"/></g><g transform="translate(0 11.631)"><path class="h" d="M143.017,85.722l6.261.381,2.973-12.3-5.847.238Z" transform="translate(-143.017 -73.804)"/></g><g transform="translate(195.539 120.332)"><path class="f" d="M277.421,149.985l2.105,5.909,12.48-2.089-2.512-5.285Z" transform="translate(-277.421 -148.52)"/></g><g transform="translate(65.424 87.716)"><path class="h" d="M191.841,126.1l-3.855,4.948,8.461,9.408,3.11-4.956Z" transform="translate(-187.986 -126.101)"/></g></g><g transform="translate(293.462 219.232)"><g transform="translate(0 27.358)"><g transform="translate(0 4.225)"><path class="f" d="M187.2,46.225l14.78,15.069,20.792-7.858.822,5.157-9,18.442,8.3,13.765-.7,4.108-20.119-3.386-11.893,13.057-2.793-2.122-2.465-16.6-18.77-9.773-.821-3.787,18.9-5.175Z" transform="translate(-165.333 -46.225)"/></g><g class="i" transform="translate(0 4.225)"><path d="M187.2,46.225l14.78,15.069,20.792-7.858.822,5.157-9,18.442,8.3,13.765-.7,4.108-20.119-3.386-11.893,13.057-2.793-2.122-2.465-16.6-18.77-9.773-.821-3.787,18.9-5.175Z" transform="translate(-165.333 -46.225)"/></g><path class="f" d="M187.2,43.32l14.78,15.068,20.792-3.633L213.01,73.469l9.88,18.652-20.814-3.5-14.686,15.16L184.29,82.9l-18.957-9.282,18.9-9.4Z" transform="translate(-165.333 -43.32)"/></g><g transform="translate(138.6 27.358)"><g transform="translate(0 4.225)"><path class="f" d="M296.994,46.225l-14.78,15.069-20.792-7.858-.822,5.157,9,18.442-8.3,13.765.7,4.108,20.119-3.386,11.893,13.057,2.793-2.122,2.465-16.6,18.77-9.773.821-3.787-18.9-5.175Z" transform="translate(-260.6 -46.225)"/></g><g class="i" transform="translate(0 4.225)"><path d="M296.994,46.225l-14.78,15.069-20.792-7.858-.822,5.157,9,18.442-8.3,13.765.7,4.108,20.119-3.386,11.893,13.057,2.793-2.122,2.465-16.6,18.77-9.773.821-3.787-18.9-5.175Z" transform="translate(-260.6 -46.225)"/></g><g transform="translate(0.705)"><path class="f" d="M296.773,43.32l-14.78,15.068L261.2,54.756l9.764,18.713-9.88,18.652,20.814-3.5,14.686,15.16,3.1-20.878,18.957-9.282-18.9-9.4Z" transform="translate(-261.085 -43.32)"/></g></g><g transform="translate(60.894 0)"><g transform="translate(0 5.155)"><path class="f" d="M244.241,28.06l12.293,24.014L284.9,50.406l-.962,6.605L265.922,76.082,270.8,96.039l-2.413,4.748L245.135,88.991l-19.484,11.4-2.6-3.653,3.316-21.193L207.189,56.473l.44-4.933,25.028.885Z" transform="translate(-207.189 -28.06)"/></g><g class="i" transform="translate(0 5.155)"><path d="M244.241,28.06l12.293,24.014L284.9,50.406l-.962,6.605L265.922,76.082,270.8,96.039l-2.413,4.748L245.135,88.991l-19.484,11.4-2.6-3.653,3.316-21.193L207.189,56.473l.44-4.933,25.028.885Z" transform="translate(-207.189 -28.06)"/></g><g transform="translate(0.44)"><path class="f" d="M245.713,24.516l12.293,24.014,26.752,3.487L265.717,71.13l4.95,26.52-24.061-12.2-23.692,12.9,4.17-26.654L207.491,53.151l26.638-4.27Z" transform="translate(-207.491 -24.516)"/></g></g></g><g transform="translate(441.997 416.276)"><g transform="translate(0 0)"><g transform="translate(0 0.277)"><path class="d" d="M267.429,178.31l20.548,2.264a48.168,48.168,0,1,1-7.229,15.672l-.013.025Z" transform="translate(-267.429 -160.146)"/></g><path class="g" d="M267.429,178.4l13.457,17.847-.316.02.013-.023a.189.189,0,0,1,.256-.074.192.192,0,0,1,.092.214,47.923,47.923,0,0,0,.317,24.837,42.936,42.936,0,0,0,2.66,7.068c.585,1.16,1.139,2.357,1.772,3.534q1.065,1.7,2.159,3.445a48.051,48.051,0,0,0,29.3,19.678,47.381,47.381,0,0,0,20.017.092,48.44,48.44,0,0,0,19.162-8.876,46.846,46.846,0,0,0,13.9-17.055,47.7,47.7,0,0,0,4.768-21.948A48.462,48.462,0,0,0,369.6,186.32a46.886,46.886,0,0,0-13-15.679,48.334,48.334,0,0,0-34.4-9.833,51.682,51.682,0,0,0-15.059,4.165,47.817,47.817,0,0,0-19.011,15.791.185.185,0,0,1-.169.077L267.429,178.4,288,180.48l-.169.076A47.927,47.927,0,0,1,306.915,164.5a52.051,52.051,0,0,1,15.216-4.279,48.869,48.869,0,0,1,34.89,9.871,47.531,47.531,0,0,1,13.223,15.893,49.151,49.151,0,0,1,5.492,21.152,48.407,48.407,0,0,1-4.836,22.3,47.538,47.538,0,0,1-14.122,17.323,49.118,49.118,0,0,1-19.467,8.994,48.024,48.024,0,0,1-20.319-.125A48.582,48.582,0,0,1,287.345,235.6l-2.172-3.5c-.636-1.193-1.193-2.408-1.779-3.583a43.314,43.314,0,0,1-2.657-7.159,48.069,48.069,0,0,1-.172-25.076l.348.14-.013.023a.188.188,0,0,1-.255.074.183.183,0,0,1-.061-.054C272.277,185.057,268.216,179.479,267.429,178.4Z" transform="translate(-267.429 -159.955)"/><g transform="translate(41.82 30.933)"><path class="g" d="M296.5,181.547a4.925,4.925,0,0,1,.038.665c.009.477.022,1.093.038,1.864.02,1.68.049,4.033.086,6.993.041,6.032.1,14.535.166,24.715l-.327-.327,34.234-.051c.087-.081-.714.714-.375.372v-2.332q0-1.165,0-2.322,0-2.311,0-4.577.007-4.53.01-8.85c.014-5.745.026-11.169.038-16.15l.327.327-24.715-.167c-2.962-.036-5.313-.064-6.993-.086-.771-.015-1.387-.028-1.864-.038a5.139,5.139,0,0,1-.665-.036,3.189,3.189,0,0,1,.594-.036l1.8-.039,6.918-.084c6.083-.042,14.659-.1,24.925-.167l.327,0v.33c.012,4.981.023,10.405.038,16.15q0,4.312.01,8.85v4.577q0,1.157,0,2.322v2.332c.339-.335-.46.468-.383.386l-34.234-.052h-.33l0-.327c.068-10.266.127-18.842.167-24.925.036-2.93.064-5.256.086-6.918.015-.746.028-1.341.038-1.8A3.339,3.339,0,0,1,296.5,181.547Z" transform="translate(-296.174 -181.217)"/><g transform="translate(6.814 5.972)"><path class="f" d="M324.917,185.34c.492.39-4.116,7.024-10.289,14.815-1.234,1.555-2.435,3.039-3.551,4.388l-.732.883-.819-.738c-5.347-4.816-8.977-8.512-8.648-8.894s4.514,2.673,10.057,7.261l-1.549.145c1.058-1.394,2.227-2.9,3.46-4.459C319.021,190.951,324.425,184.95,324.917,185.34Z" transform="translate(-300.858 -185.322)"/></g></g></g></g></g></svg>