<?xml version="1.0" standalone="no"?>
<!DOCTYPE svg PUBLIC "-//W3C//DTD SVG 20010904//EN"
 "http://www.w3.org/TR/2001/REC-SVG-20010904/DTD/svg10.dtd">
<svg fill="currentColor" version="1.0" xmlns="http://www.w3.org/2000/svg"
 width="128.000000pt" height="128.000000pt" viewBox="0 0 128.000000 128.000000"
 preserveAspectRatio="xMidYMid meet">

<g transform="translate(0.000000,128.000000) scale(0.100000,-0.100000)" stroke="none">
<path d="M581 1229 c-13 -12 -53 -85 -90 -163 -37 -77 -74 -146 -82 -153 -9
-7 -91 -24 -185 -37 -161 -24 -170 -27 -196 -56 -18 -20 -28 -41 -28 -62 0
-28 17 -50 130 -162 102 -101 130 -135 130 -155 0 -15 -11 -90 -25 -167 -31
-172 -31 -176 1 -213 41 -49 71 -43 249 50 l155 81 155 -81 c96 -50 167 -81
186 -81 37 0 89 48 89 82 0 13 -11 87 -25 164 -14 76 -25 151 -25 165 0 20 30
55 130 155 113 112 130 134 130 162 0 21 -10 42 -27 62 -27 29 -36 32 -197 56
-94 13 -176 30 -185 37 -8 7 -45 76 -82 153 -37 78 -77 151 -90 163 -30 28
-88 28 -118 0z m165 -194 c45 -87 90 -165 100 -172 11 -6 95 -23 188 -37 175
-26 203 -37 192 -73 -4 -11 -60 -70 -125 -131 -66 -62 -123 -124 -129 -139 -7
-21 -1 -73 20 -201 31 -179 29 -202 -10 -202 -8 0 -84 36 -168 80 -84 44 -163
80 -174 80 -11 0 -90 -36 -174 -80 -84 -44 -160 -80 -168 -80 -39 0 -41 23
-10 202 21 128 27 180 20 201 -6 15 -63 77 -129 139 -65 61 -121 120 -125 131
-11 36 17 47 191 73 93 14 177 30 187 35 10 5 52 78 94 162 88 175 90 179 118
175 16 -2 40 -41 102 -163z"/>
</g>
</svg>
