<svg xmlns="http://www.w3.org/2000/svg" width="857.875" height="875.21" viewBox="0 0 857.875 875.21"><defs><style>.a{opacity:0.8;}.b{fill:#3c4b64;}.c{fill:#dedcf2;}.d{fill:#6c83a8;}.e{fill:#f0f0f2;}.f{fill:#9bb2d8;}.g{fill:#d7d5f2;}.h{fill:#707070;}.i{fill:#2a4063;}.j{fill:#05173e;}.k{fill:#f7a491;}.l{fill:#ff5b51;}.m{fill:#ff7768;}.n{fill:#fff;}.o{fill:#012968;}.p{fill:#f47458;}.q{fill:#26334a;}.r{fill:#016589;}</style></defs><g class="a" transform="translate(-6.608 -84.492)"><g transform="translate(194.114 125.631)"><g transform="translate(0)"><path class="b" d="M641.224,156.707c-2.656,51.071-2.807,186.377-4.2,318.317-1.29,122.507-3.668,242.078-10.117,288.547-1.543,11.129-10.523,19.349-21.1,19.349H175.155c-11.078,0-20.311-9.031-21.248-20.766-3.186-39.638-7.083-132.979-10.472-236.943-4.5-138.266-8.171-295.326-8.12-370.048,0-12.066,8.9-22.007,20.211-22.614,75.683-4.174,294.491-16.063,466.349.278C633.308,133.916,641.857,144.49,641.224,156.707Z" transform="translate(-135.315 -124.456)"/><path class="b" d="M632.883,296.193c-1.29,122.507-3.668,242.078-10.117,288.547-1.543,11.129-10.523,19.35-21.1,19.35H171.013c-11.078,0-20.311-9.031-21.248-20.766-3.186-39.638-7.083-132.979-10.472-236.943C243.055,406.1,447.214,480.825,632.883,296.193Z" transform="translate(-131.172 54.375)"/></g><g transform="translate(28.392 31.595)"><g transform="translate(0 0)"><rect class="c" width="436.456" height="589.115" transform="translate(11.305 0) rotate(1.1)"/><path class="d" d="M439.123,385.154l-.431,22.691c-29.621,42.318-73.281,62.5-106.822,72.091l-40.2-.759c.329-.4.657-.808.961-1.239C308.269,476.825,401.079,466.908,439.123,385.154Z" transform="translate(-0.888 115.416)"/></g><g transform="translate(5.652 4.365)"><path class="e" d="M516.686,680.591a12.226,12.226,0,0,1,5.12-3.358c9.466-6.344,19.082-12.456,29.058-18.012a12.66,12.66,0,0,1,6.259-1.7A87.438,87.438,0,0,0,572.4,643.86c4.009-4.74,9.933-12.611,16.049-14.614V142.072H151.992V731.187H435.829c.992-1.611,8.563-3.035,10.48-4.091,24.579-13.542,46.983-30.438,70.109-46.225Z" transform="translate(-151.992 -142.072)"/><path class="c" d="M291.039,482.671s114.252-3.709,152.618-101.941c0,0-68.3,21.5-108.35,9.7C335.307,390.426,318.442,457.291,291.039,482.671Z" transform="translate(-7.202 106.444)"/><g transform="translate(35.747 35.377)"><g transform="translate(0 18.321)"><path class="f" d="M227.683,249.08H169.5V190.9h58.179Zm-54.258-3.923H223.76V194.822H173.425Z" transform="translate(-169.504 -190.901)"/></g><path class="b" d="M220.665,181.926q-3.08,8.543-6.348,16.99l-6.475,16.929c-3.917,9.778-7.741,19.6-11.731,29.342a106.174,106.174,0,0,1-6.477-9.331c-2.872-4.581-5.64-9.261-8.116-14.2L169.5,232.593c4.689,2.927,9.09,6.118,13.383,9.406a83.174,83.174,0,0,1,11.964,10.7l2.688,3.058,2.1-3.746c5.893-10.519,12.111-20.879,18.161-31.318l9.335-15.536q4.645-7.777,9.462-15.473Z" transform="translate(-169.504 -181.926)"/><g transform="translate(78.189 9.161)"><rect class="b" width="93.593" height="13.913"/><rect class="f" width="193.826" height="13.913" transform="translate(0 22.133)"/><rect class="f" width="114.251" height="13.912" transform="translate(0 44.267)"/></g><g transform="translate(0 113.68)"><g transform="translate(0 18.319)"><path class="f" d="M227.683,304.771H169.5V246.59h58.179Zm-54.258-3.923H223.76V250.513H173.425Z" transform="translate(-169.504 -246.59)"/></g><path class="b" d="M220.665,237.616q-3.08,8.54-6.348,16.99l-6.475,16.926c-3.917,9.778-7.741,19.6-11.731,29.344a106.168,106.168,0,0,1-6.477-9.331c-2.872-4.583-5.64-9.261-8.116-14.2L169.5,288.281c4.689,2.929,9.09,6.12,13.383,9.406a83.294,83.294,0,0,1,11.964,10.7l2.688,3.06,2.1-3.748c5.893-10.517,12.111-20.876,18.161-31.318l9.335-15.534q4.645-7.78,9.462-15.473Z" transform="translate(-169.504 -237.616)"/><g transform="translate(78.189 9.16)"><rect class="b" width="93.593" height="13.913"/><rect class="f" width="193.826" height="13.913" transform="translate(0 22.134)"/><rect class="f" width="114.251" height="13.913" transform="translate(0 44.267)"/></g></g><g transform="translate(0 236.519)"><g transform="translate(0 9.16)"><path class="f" d="M227.683,360.459H169.5V302.28h58.179Zm-54.258-3.921H223.76V306.2H173.425Z" transform="translate(-169.504 -302.28)"/></g><g transform="translate(78.189)"><rect class="b" width="93.593" height="13.913"/><rect class="f" width="193.826" height="13.913" transform="translate(0 22.133)"/><rect class="f" width="114.251" height="13.913" transform="translate(0 44.267)"/></g></g><g transform="translate(0 350.199)"><g transform="translate(0 9.159)"><path class="f" d="M227.683,416.15H169.5V357.969h58.179Zm-54.258-3.923H223.76V361.892H173.425Z" transform="translate(-169.504 -357.969)"/></g><g transform="translate(78.189)"><rect class="b" width="93.593" height="13.913"/><rect class="f" width="193.826" height="13.913" transform="translate(0 22.134)"/><rect class="f" width="114.251" height="13.913" transform="translate(0 44.267)"/></g></g></g></g></g></g><g transform="translate(6.608 403.411)"><g transform="translate(653.521 0)"><path class="d" d="M390.811,631.353a142,142,0,0,0,135.032-98.275c19.728-60.791,38.4-132.912,28.168-163.7-19.239-57.89-110.628,87.038-110.628,87.038s102.211-160.064,62.53-196.387-127.661,39.85-123.857,196.387L365.8,631.353Z" transform="translate(-352.552 -160.51)"/><path class="g" d="M369.478,593.076c-7.9-28.986-27.171-117.332,21.265-148.9,14.87-9.694,24.064-25.927,23.823-43.677-.274-20.165,2.888-44.131,17.354-55.978a23.042,23.042,0,0,0,8.046-12.966c2.572-12.031,8.621-33.391,20.844-45.659,8.637-8.666,23.575-2.449,23.819,9.784a134.956,134.956,0,0,1-5.5,41.558,23.339,23.339,0,0,0,1.78,17.706c6.022,11.42,12.863,34.777-5.357,66.941a50.21,50.21,0,0,0-4.326,38.759c11.728,40.229,22.379,125.11-89.406,140.646A11.234,11.234,0,0,1,369.478,593.076Z" transform="translate(-358.976 -131.574)"/><g transform="translate(7.768)"><path class="b" d="M377.773,387.872q11.854-19.7,23.3-39.613c7.542-13.325,14.967-26.711,22.043-40.279,7.045-13.584,13.737-27.338,20.2-41.2s12.532-27.91,18.286-42.13a.485.485,0,0,1,.633-.27.49.49,0,0,1,.285.586,397.027,397.027,0,0,1-15.738,43.355c-6.009,14.168-12.772,28-19.895,41.624q-10.646,20.46-22.47,40.263-11.755,19.828-24.615,38.955a1.2,1.2,0,0,1-2.03-1.291Z" transform="translate(-349.22 -185.679)"/><path class="b" d="M422.99,244.267a.508.508,0,0,1-.86-.239c-1.4-5.535-8.582-37.065,8.528-39.481C448.633,202.009,428.558,238.412,422.99,244.267Z" transform="translate(-309.856 -204.421)"/><path class="b" d="M417.951,247.137a.508.508,0,0,1-.477-.755c2.678-5.04,18.515-33.236,32.821-23.546C465.322,233.019,426.007,246.531,417.951,247.137Z" transform="translate(-311.769 -188.988)"/><path class="b" d="M428.1,252.375a.507.507,0,0,0,.79-.415c.2-5.7.584-38.039-16.65-36.8C394.137,216.463,421.428,247.822,428.1,252.375Z" transform="translate(-322.374 -194.349)"/><path class="b" d="M425.911,261.5a.5.5,0,0,0,.734-.5c-.47-5.69-3.883-37.847-20.852-34.592C387.965,229.821,418.748,257.761,425.911,261.5Z" transform="translate(-327.852 -183.958)"/><path class="b" d="M426.533,265.822a.507.507,0,0,0,.532-.716c-2.3-5.225-16.037-34.5-31.012-25.88C380.319,248.283,418.543,264.631,426.533,265.822Z" transform="translate(-335.4 -173.161)"/><path class="b" d="M421.6,276.641a.505.505,0,0,0,.53-.716c-2.3-5.225-16.037-34.5-31.012-25.88C375.39,259.1,413.611,275.45,421.6,276.641Z" transform="translate(-340.038 -162.983)"/><path class="b" d="M416.261,286.031a.506.506,0,0,0,.53-.718c-2.3-5.223-16.037-34.5-31.01-25.878C370.047,268.491,408.271,284.84,416.261,286.031Z" transform="translate(-345.063 -154.149)"/><path class="b" d="M410.476,296.882a.506.506,0,0,0,.53-.716c-2.3-5.225-16.037-34.5-31.012-25.88C364.263,279.343,402.484,295.691,410.476,296.882Z" transform="translate(-350.506 -143.94)"/><path class="b" d="M407.988,301.761a.506.506,0,0,0,.355-.817c-3.418-4.573-23.377-30.016-36.033-18.253C359.015,295.05,399.932,302.4,407.988,301.761Z" transform="translate(-356.678 -133.68)"/><path class="b" d="M401.291,312.231a.506.506,0,0,0,.355-.817c-3.416-4.572-23.377-30.016-36.033-18.253C352.319,305.522,393.237,312.866,401.291,312.231Z" transform="translate(-362.978 -123.829)"/><path class="b" d="M413.29,252.811a.508.508,0,0,1-.219-.866c4.107-3.965,27.891-25.874,38.5-12.233C462.706,254.047,421.14,254.728,413.29,252.811Z" transform="translate(-316.004 -175.379)"/><path class="b" d="M410.336,257.075a.508.508,0,0,1,.031-.893c5.054-2.655,34.022-17.026,40.38-.961C457.427,272.1,417.334,261.113,410.336,257.075Z" transform="translate(-318.661 -163.676)"/><path class="b" d="M405.4,265.733a.506.506,0,0,1,.118-.883c5.291-2.143,35.541-13.574,40.277,3.043C450.773,285.352,411.966,270.447,405.4,265.733Z" transform="translate(-323.262 -153.051)"/><path class="b" d="M400.06,275.614a.506.506,0,0,1,.147-.879c5.357-1.972,35.961-12.421,40.157,4.342C444.773,296.685,406.466,280.536,400.06,275.614Z" transform="translate(-328.278 -142.998)"/><path class="b" d="M394.334,285.709a.508.508,0,0,1,.182-.873c5.434-1.751,36.436-10.952,39.949,5.966C438.156,308.576,400.536,290.887,394.334,285.709Z" transform="translate(-333.649 -132.595)"/><path class="b" d="M389.633,291.475a.508.508,0,0,1,.4-.8c5.7-.3,38.024-1.277,37.1,15.977C426.159,324.781,394.307,298.066,389.633,291.475Z" transform="translate(-337.989 -123.386)"/><path class="b" d="M383.517,301.937a.507.507,0,0,1,.4-.8c5.7-.3,38.024-1.279,37.1,15.975C420.042,335.241,388.19,308.528,383.517,301.937Z" transform="translate(-343.744 -113.543)"/></g></g><g transform="translate(0 127.562)"><path class="g" d="M203.133,546.595C180.373,526.983,115,464.513,137.5,411.254c6.909-16.353,5.454-34.95-4.671-49.533-11.5-16.563-22.282-38.2-16.914-56.112a23.051,23.051,0,0,0-.58-15.251c-4.6-11.412-11.522-32.5-8.25-49.507,2.313-12.013,18.175-15.214,25.219-5.207a134.932,134.932,0,0,1,18.678,37.527,23.333,23.333,0,0,0,11.377,13.684c11.377,6.1,30.109,21.64,32.989,58.491A50.207,50.207,0,0,0,213.434,379.9c32.217,26.794,88.509,91.209,4.524,166.6A11.237,11.237,0,0,1,203.133,546.595Z" transform="translate(30.6 -229.694)"/><path class="h" d="M210.518,549.839a11.821,11.821,0,0,1-7.712-2.865c-11.615-10.008-33.539-30.482-49.88-55.155-9.147-13.811-15.321-27.131-18.351-39.588a73.26,73.26,0,0,1-2.149-20.7,59.612,59.612,0,0,1,4.613-20.473c6.973-16.5,5.245-34.842-4.622-49.053-6.8-9.785-11.79-19.094-14.844-27.668-3.889-10.918-4.608-20.632-2.138-28.872a22.689,22.689,0,0,0-.565-14.921,143.484,143.484,0,0,1-7.1-22.738c-2.235-10.395-2.631-19.5-1.177-27.051a13.871,13.871,0,0,1,5.245-8.557,14.931,14.931,0,0,1,9.013-3.007,14.335,14.335,0,0,1,11.861,6.163,143.641,143.641,0,0,1,9.99,16.412,127.555,127.555,0,0,1,8.758,21.256,22.739,22.739,0,0,0,11.135,13.391,55.246,55.246,0,0,1,9.637,6.591,59.529,59.529,0,0,1,10.218,11.278c7.614,10.9,12.121,24.7,13.4,41.024a49.912,49.912,0,0,0,17.909,34.208A185.67,185.67,0,0,1,229.5,394.206a149.165,149.165,0,0,1,15.648,19.326c11.161,16.568,16.982,33.53,17.3,50.413a79.338,79.338,0,0,1-2.025,19.256,91.62,91.62,0,0,1-7.41,20.35,122.981,122.981,0,0,1-13.732,21.275,181.966,181.966,0,0,1-20.99,22.045A11.619,11.619,0,0,1,210.518,549.839ZM120.85,230.194a13.306,13.306,0,0,0-13.276,10.753c-3.264,16.961,3.751,38.122,8.223,49.226a22.738,22.738,0,0,1,1.624,7.735,24.4,24.4,0,0,1-1.029,7.846c-5.439,18.145,6.159,40.3,16.846,55.683a50.329,50.329,0,0,1,6.033,11.708,50.969,50.969,0,0,1,2.778,12.634,52.728,52.728,0,0,1-.448,12.965,54.673,54.673,0,0,1-3.642,12.7c-9.578,22.671-4.262,49.525,15.8,79.817,16.275,24.573,38.124,44.975,49.7,54.95a10.821,10.821,0,0,0,7.059,2.623,10.621,10.621,0,0,0,7.106-2.712c29.608-26.578,44.353-54.221,43.825-82.164-.725-38.433-30.595-68.924-48.335-83.678a51.932,51.932,0,0,1-7.13-7.219,51.363,51.363,0,0,1-5.538-8.4,50.373,50.373,0,0,1-3.771-9.314,49.354,49.354,0,0,1-1.828-9.969c-2.877-36.814-21.74-52.2-32.727-58.09a24.28,24.28,0,0,1-7.2-5.843,23.265,23.265,0,0,1-4.42-8.136,132.9,132.9,0,0,0-18.609-37.386A13.347,13.347,0,0,0,120.85,230.194Z" transform="translate(30.6 -229.694)"/><path class="d" d="M328.606,599.616H210.762c-84.655,0-158.42-60.057-172.993-143.449-3.926-22.468-2.671-42.177,8.087-54.1,40.161-44.5,105.285,83.6,105.285,83.6s-54.272-142.428-3.257-190.623S274.877,379.325,258.6,479.7c0,0,10.057-134.5,64.913-159.037S371.48,569.225,328.606,599.616Z" transform="translate(-35.729 -177.821)"/><g transform="translate(147.473 218.954)"><path class="b" d="M204.692,509.274q-12.832-19.132-24.615-38.955-11.86-19.767-22.47-40.265c-7.123-13.624-13.886-27.456-19.895-41.622a396.789,396.789,0,0,1-15.738-43.355.486.486,0,0,1,.918-.318q8.632,21.33,18.286,42.13c6.461,13.863,13.153,27.619,20.2,41.2,7.074,13.568,14.5,26.952,22.043,40.279q11.418,19.927,23.3,39.613a1.2,1.2,0,0,1-2.03,1.291Z" transform="translate(-93.359 -305.79)"/><path class="b" d="M129.318,364.378a.506.506,0,0,0,.858-.239c1.4-5.535,8.582-37.065-8.526-39.481C103.675,322.12,123.75,358.521,129.318,364.378Z" transform="translate(-100.536 -324.532)"/><path class="b" d="M142.955,367.246a.507.507,0,0,0,.477-.753c-2.678-5.042-18.515-33.238-32.821-23.546C95.584,353.131,134.9,366.643,142.955,367.246Z" transform="translate(-107.221 -309.1)"/><path class="b" d="M126.274,372.487a.507.507,0,0,1-.79-.415c-.2-5.7-.584-38.041,16.65-36.8C160.24,336.575,132.948,367.934,126.274,372.487Z" transform="translate(-90.086 -314.461)"/><path class="b" d="M130.175,381.608a.507.507,0,0,1-.736-.5c.47-5.688,3.885-37.845,20.854-34.59C168.122,349.931,137.339,377.87,130.175,381.608Z" transform="translate(-86.319 -304.069)"/><path class="b" d="M133.667,385.933a.508.508,0,0,1-.532-.718c2.3-5.223,16.037-34.5,31.012-25.878C179.879,368.393,141.657,384.742,133.667,385.933Z" transform="translate(-82.884 -293.272)"/><path class="b" d="M138.6,396.752a.506.506,0,0,1-.53-.718c2.3-5.223,16.037-34.5,31.01-25.878C184.81,379.213,146.589,395.561,138.6,396.752Z" transform="translate(-78.246 -283.094)"/><path class="b" d="M143.939,406.142a.508.508,0,0,1-.532-.718c2.3-5.223,16.039-34.5,31.012-25.878C190.153,388.6,151.929,404.949,143.939,406.142Z" transform="translate(-73.221 -274.26)"/><path class="b" d="M149.723,416.993a.507.507,0,0,1-.53-.718c2.3-5.223,16.037-34.5,31.012-25.878C195.937,399.453,157.715,415.8,149.723,416.993Z" transform="translate(-67.777 -264.052)"/><path class="b" d="M154.13,421.873a.506.506,0,0,1-.355-.817c3.418-4.573,23.377-30.018,36.033-18.253C203.1,415.161,162.186,422.505,154.13,421.873Z" transform="translate(-63.524 -253.791)"/><path class="b" d="M160.827,432.343a.506.506,0,0,1-.355-.817c3.416-4.573,23.377-30.018,36.031-18.253C209.8,425.631,168.881,432.975,160.827,432.343Z" transform="translate(-57.224 -243.941)"/><path class="b" d="M149.682,372.92a.506.506,0,0,0,.221-.864c-4.107-3.965-27.891-25.874-38.5-12.233C100.268,374.156,141.834,374.839,149.682,372.92Z" transform="translate(-105.054 -295.49)"/><path class="b" d="M153.059,377.184a.507.507,0,0,0-.031-.891c-5.054-2.655-34.022-17.026-40.38-.961C105.968,392.211,146.061,381.224,153.059,377.184Z" transform="translate(-102.818 -283.787)"/><path class="b" d="M157.814,385.844a.506.506,0,0,0-.118-.883c-5.293-2.143-35.542-13.574-40.277,3.043C112.445,405.461,151.252,390.558,157.814,385.844Z" transform="translate(-98.04 -273.161)"/><path class="b" d="M163.066,395.723a.507.507,0,0,0-.148-.879c-5.358-1.97-35.961-12.419-40.157,4.343C118.352,416.8,156.66,400.647,163.066,395.723Z" transform="translate(-92.932 -263.109)"/><path class="b" d="M168.653,405.821a.507.507,0,0,0-.184-.873c-5.432-1.751-36.434-10.954-39.947,5.964C124.828,428.687,162.45,411,168.653,405.821Z" transform="translate(-87.421 -252.706)"/><path class="b" d="M171.92,411.586a.508.508,0,0,0-.4-.8c-5.7-.3-38.024-1.279-37.1,15.975C135.395,444.892,167.245,418.177,171.92,411.586Z" transform="translate(-81.648 -243.497)"/><path class="b" d="M178.037,422.047a.506.506,0,0,0-.4-.8c-5.7-.307-38.024-1.279-37.1,15.975C141.512,455.352,173.364,428.637,178.037,422.047Z" transform="translate(-75.894 -233.655)"/></g></g></g><g transform="translate(53.91 84.492)"><g transform="translate(449.598 814.404)"><path class="d" d="M1653.17,2360.852v37.684c0,6.093-67.964,11.032-151.8,11.032s-151.8-4.939-151.8-11.032v-37.684Z" transform="translate(-1349.566 -2349.42)"/><g transform="translate(0 11.431)"><path class="b" d="M1639.422,2409.142v-48.29h109.856v37.684C1749.278,2403.572,1702.859,2407.819,1639.422,2409.142Z" transform="translate(-1445.675 -2360.852)"/><path class="b" d="M1586.835,2409.241c-11.792.214-24.129.327-36.832.327-18.928,0-37.046-.252-53.756-.712v-48h90.588Z" transform="translate(-1398.202 -2360.852)"/><path class="b" d="M1441.53,2408.678c-54.084-1.688-91.963-5.593-91.963-10.142v-37.684h91.963Z" transform="translate(-1349.566 -2360.852)"/></g><path class="i" d="M1349.566,2354.781c0,6.093,67.964,11.031,151.8,11.031s151.8-4.939,151.8-11.031-67.964-11.031-151.8-11.031S1349.566,2348.69,1349.566,2354.781Z" transform="translate(-1349.566 -2343.75)"/><ellipse class="d" cx="125.006" cy="7.648" rx="125.006" ry="7.648" transform="translate(26.796 3.383)"/></g><g transform="translate(407.652 774.526)"><path class="d" d="M1590.417,2301.193v37.685c0,6.093-67.964,11.032-151.8,11.032s-151.8-4.939-151.8-11.032v-37.685Z" transform="translate(-1286.813 -2289.762)"/><g transform="translate(0 11.431)"><path class="b" d="M1576.669,2349.482v-48.289h109.856v37.685C1686.525,2343.914,1640.105,2348.16,1576.669,2349.482Z" transform="translate(-1382.922 -2301.193)"/><path class="b" d="M1524.083,2349.583c-11.793.213-24.13.327-36.833.327-18.927,0-37.046-.252-53.756-.712v-48h90.589Z" transform="translate(-1335.449 -2301.193)"/><path class="b" d="M1378.777,2349.019c-54.085-1.688-91.964-5.593-91.964-10.141v-37.685h91.964Z" transform="translate(-1286.813 -2301.193)"/></g><ellipse class="i" cx="151.802" cy="11.031" rx="151.802" ry="11.031"/><path class="d" d="M1326.9,2296.8c0,4.224,55.967,7.648,125.005,7.648s125.006-3.425,125.006-7.648-55.967-7.649-125.006-7.649S1326.9,2292.577,1326.9,2296.8Z" transform="translate(-1300.105 -2285.77)"/></g><g transform="translate(445.25 733.589)"><path class="d" d="M1646.665,2239.949v37.684c0,6.092-67.964,11.03-151.8,11.03s-151.8-4.938-151.8-11.03v-37.684Z" transform="translate(-1343.061 -2228.518)"/><g transform="translate(0 11.431)"><path class="b" d="M1632.917,2288.238v-48.288h109.857v37.684C1742.774,2282.668,1696.353,2286.915,1632.917,2288.238Z" transform="translate(-1439.17 -2239.949)"/><path class="b" d="M1580.331,2288.337c-11.792.214-24.13.326-36.833.326-18.927,0-37.045-.251-53.755-.711v-48h90.588Z" transform="translate(-1391.697 -2239.949)"/><path class="b" d="M1435.025,2287.774c-54.085-1.688-91.964-5.593-91.964-10.141v-37.684h91.964Z" transform="translate(-1343.061 -2239.949)"/></g><path class="i" d="M1343.061,2233.878c0,6.092,67.964,11.031,151.8,11.031s151.8-4.939,151.8-11.031-67.964-11.031-151.8-11.031S1343.061,2227.785,1343.061,2233.878Z" transform="translate(-1343.061 -2222.847)"/><path class="d" d="M1383.149,2235.556c0,4.224,55.968,7.647,125.006,7.647s125.005-3.424,125.005-7.647-55.967-7.648-125.005-7.648S1383.149,2231.332,1383.149,2235.556Z" transform="translate(-1356.353 -2224.525)"/></g><g transform="translate(407.652 693.212)"><path class="d" d="M1590.417,2179.543v37.685c0,6.093-67.964,11.031-151.8,11.031s-151.8-4.938-151.8-11.031v-37.685Z" transform="translate(-1286.813 -2168.112)"/><g transform="translate(0 11.431)"><path class="b" d="M1576.669,2227.832v-48.289h109.856v37.685C1686.525,2222.263,1640.105,2226.51,1576.669,2227.832Z" transform="translate(-1382.922 -2179.543)"/><path class="b" d="M1524.083,2227.933c-11.793.213-24.13.326-36.833.326-18.927,0-37.046-.251-53.756-.712v-48h90.589Z" transform="translate(-1335.449 -2179.543)"/><path class="b" d="M1378.777,2227.368c-54.085-1.687-91.964-5.592-91.964-10.141v-37.685h91.964Z" transform="translate(-1286.813 -2179.543)"/></g><path class="i" d="M1286.813,2173.473c0,6.093,67.964,11.031,151.8,11.031s151.8-4.938,151.8-11.031-67.964-11.031-151.8-11.031S1286.813,2167.381,1286.813,2173.473Z" transform="translate(-1286.813 -2162.442)"/><path class="d" d="M1326.9,2175.15c0,4.225,55.967,7.649,125.005,7.649s125.006-3.424,125.006-7.649-55.967-7.648-125.006-7.648S1326.9,2170.926,1326.9,2175.15Z" transform="translate(-1300.105 -2164.12)"/></g><g transform="translate(288.906 347.938)"><path class="j" d="M1473.849,1654.116a82.583,82.583,0,0,0,9.522-3.8c3.487-1.675,8.005-3.638,10.859-4.077,6.009-.924,16.33-.308,22.029,5.854,7.1,7.677,19.718,1.386,17.177,41.593-2.878,45.509-28.268,40.514-28.884,39.744s-22.645-29.115-22.645-29.115-7.7,16.791-7.7,16.175C1474.2,1719.9,1434.876,1667.2,1473.849,1654.116Z" transform="translate(-1224.37 -1645.895)"/><path class="k" d="M1312.266,2365.052s-3.609,19.147-3.612,19.188c-.2,2.495-.126,8.8-.665,10.98-2.026,8.188-36.464-11.711-27.429-13.311.818-.145,6.744-6.142,8.1-8.681,2.362-4.417,4.533-12.649,4.533-12.649Z" transform="translate(-1165.494 -1882.865)"/><path class="l" d="M1264.8,2389.333a134.561,134.561,0,0,0,13.415,2.652c4.524.452,10.33-6.575,13.575-5.246,3.572,1.462,5.517,23.761,5.517,23.761s-56.8,2.587-70.229-1.121C1221.754,2407.911,1247.12,2396.106,1264.8,2389.333Z" transform="translate(-1148.02 -1891.483)"/><path class="k" d="M1194.072,2363.746s-3.608,19.147-3.611,19.188c-.2,2.495-.126,8.8-.665,10.981-2.027,8.187-35.83-10.4-26.8-12,.818-.145,6.109-7.451,7.467-9.99,2.361-4.418,4.533-12.65,4.533-12.65Z" transform="translate(-1126.506 -1882.432)"/><path class="l" d="M1147.6,2389.333a134.566,134.566,0,0,0,13.415,2.652c4.524.452,10.331-6.575,13.575-5.246,3.571,1.462,5.516,23.761,5.516,23.761s-56.8,2.587-70.229-1.121C1104.563,2407.911,1129.93,2396.106,1147.6,2389.333Z" transform="translate(-1109.163 -1891.483)"/><path class="j" d="M1395.984,2064.912l-103.339-23.97s-46.343-12.252-57.53,2.13-58.689,212.874-58.689,212.874,24.5,2.131,26.1,1.065l57.357-101.8a88.78,88.78,0,0,0,10.581-31.313l4.068-29.152,42.081,12.252s48.474,10.653,68.183-1.6S1395.984,2064.912,1395.984,2064.912Z" transform="translate(-1131.466 -1775.269)"/><path class="l" d="M1429.055,1812.681c-1.632.067-6.1,1.559-12.645,13.878-8.353,15.732-20.56,63.255-20.56,63.255l36.439,13.524,4.682-9.92,7.71-76.364S1429.507,1812.663,1429.055,1812.681Z" transform="translate(-1204.22 -1701.197)"/><path class="m" d="M1492.548,1802.434c-10.419.014-36.2,3.043-48.168,6.854,0,0-8.791,75.3,7.915,132.517,3.74,12.808-3.093,53.1-3.093,53.1l107.974-1.421s-12.791-97.4-7.972-113.127,4.934-70.559,4.934-70.559-.739-.115-24.259-4.166A245.165,245.165,0,0,0,1492.548,1802.434Z" transform="translate(-1219.545 -1697.799)"/><path class="k" d="M1549.266,1825.909c-10.1-3.773-15.034,86.88-16.4,124.193-17.877,1.714-49.038.014-56.8-.567-3.65-.274-12.063-3.345-15.692-3.818-3.719-.485-7.091-.738-8.919-.421-.671.115-19.305,7.711-20.9,9.377-1.977,2.065-7.321,7.275-6.419,9.528s10.279-6.277,10.279-6.277l4.582-2.562c-5.7,5.554-16.586,12.869-15.019,15.532,1.529,2.6,11.344-4.825,18.34-9.885-6,5.4-13.454,15.068-11.737,16.574,1.543,1.353,10.023-9.836,19.085-13.058,3.358-1.194,6.705,2.112,9.347,2.512,1.942.293,4.939.918,6.844.38l9.1-.878a47.539,47.539,0,0,1,7.512,1.093c3.919.831,10.347,1.706,15.337,2.921,28.735,7,38.32,10.247,47.117,10.241C1571.579,1980.776,1573.125,1834.829,1549.266,1825.909Z" transform="translate(-1213.499 -1705.545)"/><path class="l" d="M1619.836,1906.816c1.891-38.221,1.614-85.328-19.884-93.366-8.482-3.172-23.437,15.9-20.747,94.143C1590.682,1908.536,1607.531,1909.3,1619.836,1906.816Z" transform="translate(-1264.911 -1701.343)"/><path class="b" d="M1278.4,1918.341l101.727,6.646A6.648,6.648,0,0,1,1386,1929.5l26.332,78.44,56.083,3.664a2.844,2.844,0,0,1,2.654,3.022h0a2.845,2.845,0,0,1-3.025,2.653l-159.616-10.426a11.166,11.166,0,0,1-9.735-7.243l-26.95-72.318A6.648,6.648,0,0,1,1278.4,1918.341Z" transform="translate(-1162.929 -1736.225)"/><path class="n" d="M1357.744,1987.556c.2,3.5,2.853,6.2,5.918,6.021s5.387-3.157,5.186-6.659-2.852-6.2-5.918-6.021S1357.542,1984.055,1357.744,1987.556Z" transform="translate(-1191.582 -1756.97)"/><path class="o" d="M1506.951,2073.976l-112.612-19.443s-48.687-7.417-59.874,6.965-43.679,200.819-43.679,200.819,24.5,2.132,26.1,1.066c1.238-.825,30.9-62.98,44.228-90.984a106.477,106.477,0,0,0,8.841-28.021l4.281-25.375,14.171,4.879a172.959,172.959,0,0,0,77.572,8.3c10.943-1.359,21.155-3.7,27.49-7.634C1513.178,2112.3,1506.951,2073.976,1506.951,2073.976Z" transform="translate(-1169.384 -1780.754)"/><path class="k" d="M1509.244,1769.175l-2.192,16.262s-4.91,23.428,1.407,27.944,26.864-28.612,26.864-28.612l-2.17-41.205Z" transform="translate(-1240.489 -1678.279)"/><path class="p" d="M1534.92,1756.918c-5.218,14.054-17.646,22.693-26.468,26.044l1.859-13.787,23.908-25.611Z" transform="translate(-1241.556 -1678.279)"/><path class="k" d="M1500.741,1676.344a21.731,21.731,0,0,0-25.057,21.93,164.2,164.2,0,0,0,1.833,20.857c2.91,18.772,15.762,35.3,24.259,33.825s29.877-17.669,26.113-44.382C1525.564,1692.081,1514.788,1678.6,1500.741,1676.344Z" transform="translate(-1230.689 -1655.899)"/><path class="k" d="M1544.9,1725.2c.717,4.128,4.035,7,7.41,6.412s5.531-4.408,4.813-8.536-4.035-7-7.41-6.412S1544.182,1721.068,1544.9,1725.2Z" transform="translate(-1253.596 -1669.333)"/><path class="j" d="M1525.417,1700.136s-10.274,2.544-14.086-4.042-17.447-20.8-34.777-14.9,15.251-14.326,16.637-14.326,18.024-.115,18.024-.115,12.824,10.514,13.286,11.669,4.159,13.749,4.159,13.749Z" transform="translate(-1229.3 -1652.809)"/><circle cx="3.448" cy="3.448" r="3.448" transform="translate(251.359 51.815)"/><ellipse cx="3.831" cy="3.448" rx="3.831" ry="3.448" transform="translate(270.516 51.815)"/></g><path class="q" d="M343.65,1579.305l-2.771,33.726-19.59-22.063-63.359-51.891,54.029,17.022s26.6,12.923,27.822,14.629S343.65,1579.305,343.65,1579.305Z" transform="translate(-257.93 -1539.078)"/><path class="b" d="M372.361,1564.813,257.93,1539.078l85.721,40.227Z" transform="translate(-257.93 -1539.078)"/><path class="b" d="M299.643,1604.28l35.272-17.6-76.984-47.6Z" transform="translate(-257.93 -1539.078)"/><g transform="translate(89.863 54.081)"><g transform="translate(0)"><path class="r" d="M401.586,1624.858a41.737,41.737,0,0,0-9.216-2.421l.259-2.452a43.625,43.625,0,0,1,9.825,2.565Z" transform="translate(-392.37 -1619.986)"/></g><g transform="translate(24.567 12.548)"><path class="r" d="M468.583,1832.245a102.562,102.562,0,0,1-12.713-13.9l1.968-1.483a100.3,100.3,0,0,0,12.407,13.566Zm-22.5-30.019c-1.241-2.605-2.383-5.32-3.395-8.069-1.143-3.109-2.155-6.358-3.007-9.657l2.387-.615c.831,3.219,1.819,6.389,2.934,9.421.985,2.678,2.1,5.323,3.306,7.86Zm-7.135-36.5-2.454.232a159.246,159.246,0,0,1-.608-18.768l2.464.055A156.815,156.815,0,0,0,438.949,1765.726Zm.6-36.987-2.453-.249c.55-5.441,1.287-11.336,2.319-18.55l2.44.349C440.832,1717.469,440.1,1723.331,439.553,1728.739Zm5.05-36.9-2.443-.336.021-.143a88.28,88.28,0,0,0,.91-18.2l2.461-.153a90.8,90.8,0,0,1-.932,18.715Zm-5.363-36.421a42.331,42.331,0,0,0-10.115-14.866l1.694-1.791a44.758,44.758,0,0,1,10.7,15.725Z" transform="translate(-429.124 -1638.758)"/></g></g><g transform="translate(546.92 428.702)"><path d="M9.338,4.155A26.817,26.817,0,0,1-.856,1.807L0,0,.854-1.809A23.035,23.035,0,0,0,9.338.155a27.2,27.2,0,0,0,9.033-1.994l1.574,3.677A30.9,30.9,0,0,1,9.338,4.155Z" transform="translate(0 0)"/></g></g></g></svg>